<?xml version="1.0" encoding="utf-8"?>
<!-- Generator: Adobe Illustrator 27.0.0, SVG Export Plug-In . SVG Version: 6.00 Build 0)  -->
<svg version="1.1" id="Layer_1" xmlns="http://www.w3.org/2000/svg" xmlns:xlink="http://www.w3.org/1999/xlink" x="0px" y="0px"
	 viewBox="0 0 1000 1000" style="enable-background:new 0 0 1000 1000;" xml:space="preserve">
<style type="text/css">
	.st0{fill:#FFFFFF;}
	.st1{fill:#E2BC9A;}
	.st2{fill:#F16522;}
	.st3{fill:#2B1818;}
	.st4{fill:#EC297B;}
	.st5{fill:#F1F1F2;}
</style>
<g>
	<g>
		<path class="st0" d="M813.19,567.69c-2.92,3.76-6.53,7.01-10.69,9.65l-0.25,0.16c-3.43,2.18-6.97,4.42-10.82,6.58
			c-12.47,6.98-26.56,12.18-44.35,16.39c-11.27,2.66-21.87,3.95-32.41,3.95c-2.3,0-4.63-0.06-6.9-0.19
			c-0.41-0.03-0.83-0.04-1.25-0.06c0.18,2.53,0.29,5.16,0.26,7.84c-0.19,22.71-6.34,43.91-18.26,63.01
			c-6.06,9.71-13.47,19.41-23.32,30.53c-2.91,3.28-5.88,6.34-8.83,9.3c3.07,0.57,7.1,1.51,11.33,3.65
			c7.89,4,13.42,11.01,15.17,19.24c1.75,8.21-0.43,16.82-5.99,23.65c-4.25,5.23-9.75,9.14-16.81,11.94
			c-5.29,2.1-10.88,3.51-17.07,4.3c-3.56,0.46-7.05,0.69-10.4,0.69c-4.37,0-8.66-0.4-12.78-1.17c-2.53,0.58-5.12,0.88-7.72,0.88
			c-3.74,0-7.56-0.62-11.34-1.83l-0.01-0.01c-0.65-0.18-1.87-0.52-3.32-1.1c-12.44-4.97-26.78-11.41-39.74-21.64
			c-0.35,0.03-0.7,0.06-1.06,0.09l-2.5,0.24c-7.86,0.77-15.98,1.55-24.41,1.75c-1.46,0.04-3.05,0.13-4.74,0.23
			c-2.49,0.14-5.33,0.3-8.31,0.3h-0.2c-18.05-0.04-36.04-2.64-55-7.95c-13.45-3.77-27.27-9.17-42.23-16.53
			c-1.27-0.63-2.55-1.27-3.83-1.92c-0.61,0.78-1.26,1.52-1.95,2.23c-4.9,5.01-11.75,7.88-18.78,7.88c-3.23,0-6.43-0.58-9.48-1.73
			c-2.07-0.78-4.08-1.8-6.13-3.12c-2.49-1.6-5-3.2-7.5-4.8c-6.83-4.37-13.89-8.88-20.83-13.45c-11.14-7.34-21.27-15.69-30.11-24.82
			c-9.67-9.98-18.56-21.9-27.18-36.45c-4.82-8.14-9.34-16.93-13.42-26.13c-0.06-0.14-0.14-0.29-0.21-0.45
			c-0.53-1.11-1.32-2.74-1.99-4.84c-0.05-0.06-0.1-0.12-0.15-0.17c-5.18,6-12.57,9.51-20.28,9.51c-10.36,0-19.65-6.09-24.26-15.9
			c-1.6-3.41-2.35-6.56-2.92-9.46c-2.09-10.54-3.59-21.2-4.9-31.14c-0.02-0.17-0.04-0.34-0.06-0.5h-0.25
			c-6.77,0-13.51-0.96-20.01-2.87c-2.95-0.86-7.38-2.37-11.85-5.5c-7.45-5.21-11.98-13.07-12.42-21.57
			c-0.45-8.52,3.25-16.86,10.16-22.87c4.16-3.62,8.4-5.47,11.2-6.7c4.03-1.76,7.88-3.51,10.85-5.5c2.43-1.63,4.7-3.68,6.95-6.28
			l0.96-1.11c3.07-3.53,5.73-6.58,7.48-9.54c1.61-2.7,3.2-5.55,3.98-8.07c1.29-4.22,1.12-6.33,0.83-7.69
			c-1-4.59-1.96-9.54-2.36-14.89c-1.1-2.14-1.84-4.17-2.45-5.95c-1.34-3.99-1.81-8-1.39-11.91c0.24-2.16,1.22-7.55,5.3-12.35
			c2.49-12.17,7.21-23.82,14.08-34.76c-2.3-1.02-4.55-2.16-6.73-3.44c-5.34-3.12-9.98-6.99-13.81-11.48
			c-3.85-4.52-6.32-9.57-7.32-15c-2.59-13.99,4.93-27.13,18.29-31.95c3.65-1.32,7.47-1.99,11.36-1.99c2.42,0,4.89,0.26,7.34,0.78
			c4.32,0.91,8.23,1.36,11.95,1.36l0.29-0.01c2.4-0.01,4.34-0.37,5.92-1.08c7.84-3.56,14.02-8.06,18.88-13.76
			c5.01-5.88,9.54-12.3,13.86-19.63c1-1.69,1.98-3.38,2.97-5.07c3.73-6.4,7.6-13.01,11.82-19.54c5.17-7.97,10.68-15.81,16.4-23.31
			c8.11-10.62,19.09-18.45,32.67-23.29c7.94-2.83,16.68-4.77,27.5-6.12c4.35-0.55,8.89-0.82,13.51-0.82
			c11.27,0,21.91,1.63,29.91,3.05c10.73,1.9,23.41,4.47,36.01,9.04c0.68,0.25,1.36,0.5,2.04,0.74c4.61,1.66,9.81,3.54,15.04,6.11
			c1.89-1.24,3.76-2.45,5.61-3.63c1.27-0.82,2.55-1.64,3.82-2.46c11.46-7.47,23.64-10.74,34.04-12.95
			c6.69-1.43,13.84-2.27,21.88-2.57c1.08-0.04,2.18-0.06,3.25-0.06c13.49,0,26.64,3.21,39.11,9.52c6.37,3.23,11.3,7.61,14.67,13.02
			l1.53,1.44c1.68,1.59,3.37,3.17,5.03,4.76c4.64,4.43,8.61,8.92,12.15,13.72c1.12,1.53,2.52,3.19,3.99,4.96
			c0.61,0.73,1.21,1.45,1.82,2.19l0.5,0.61c2.25,2.73,5.24,6.34,7.54,11.35c4.01,4.47,8.36,9.1,13.06,12.9
			c6.16,4.97,12.89,8.32,20.59,10.25c0.72,0.18,1.57,0.26,2.54,0.26c0.95,0,2.04-0.08,3.22-0.26c3.53-0.51,6.65-1.29,9.52-2.4
			c4.65-1.78,9.36-2.69,14-2.69c1.26,0,2.54,0.07,3.79,0.2c8.13,0.86,15.21,4.81,19.95,11.11c4.74,6.32,6.56,14.23,5.12,22.3
			c-1.1,6.16-3.87,11.77-8.45,17.16c-4.21,4.95-8.98,9.1-14.26,12.45c10.24,11.95,17.4,25.44,21.36,40.25
			c0.08-0.05,0.16-0.1,0.24-0.15c3.89-2.44,8.35-3.73,12.92-3.73c5.85,0,11.54,2.13,16.01,5.98c7.28,6.27,10.25,15.94,7.76,25.24
			c-1.29,4.8-3.8,9-7.68,12.84c-4.35,4.3-9.57,9.21-15.67,14c0.62,0.04,1.24,0.07,1.85,0.07c5.13,0,10.45-1.55,16.75-4.88
			c0.49-0.26,0.97-0.52,1.45-0.78c1.06-0.58,2.25-1.23,3.57-1.88c4.35-2.17,9.18-3.33,13.98-3.36h0.2c8.34,0,16.1,3.61,21.3,9.9
			c5.2,6.31,7.28,14.64,5.69,22.87c-0.84,4.37-2.58,8.54-5.31,12.75c-2.65,4.09-5.5,7.32-8.01,10.18l-0.06,0.07
			c-7.61,8.64-16.31,16.34-25.97,23.01c0.42-0.15,0.86-0.31,1.32-0.47l0.51-0.18c1.65-0.58,4.13-1.46,7.26-1.94
			c1.61-0.25,3.21-0.37,4.77-0.37c9.63,0,18.27,4.86,23.14,13.01C821.34,546.61,820.42,558.39,813.19,567.69z"/>
		<path d="M632.59,781.31c-4.32,0-8.59-0.37-12.72-1.11c-6.55,1.39-13.33,1-20.04-1.16l-0.05-0.02c-0.77-0.21-2-0.57-3.47-1.16
			c-12.25-4.89-26.47-11.24-39.54-21.33l-2.36,0.22c-7.89,0.77-16.05,1.56-24.63,1.76c-1.32,0.04-2.75,0.11-4.63,0.22
			c-2.4,0.14-5.39,0.31-8.49,0.31h-0.2c-18.34-0.05-36.59-2.68-55.81-8.06c-13.62-3.82-27.61-9.29-42.74-16.72
			c-0.58-0.29-1.17-0.58-1.75-0.87c-0.19,0.2-0.38,0.4-0.57,0.6c-5.45,5.58-13.08,8.78-20.92,8.78c-3.61,0-7.15-0.65-10.54-1.92
			c-2.28-0.86-4.47-1.97-6.7-3.41c-1.47-0.95-2.95-1.89-4.43-2.84l-3.79-2.42c-6.6-4.22-13.43-8.59-20.15-13.02
			c-11.33-7.47-21.63-15.96-30.62-25.24c-9.85-10.17-18.88-22.27-27.61-37c-4.88-8.24-9.45-17.13-13.58-26.44l-0.19-0.41
			c-0.13-0.28-0.29-0.61-0.47-0.99c-5.41,4.64-12.22,7.24-19.24,7.24c-11.54,0-21.87-6.75-26.97-17.62
			c-1.74-3.7-2.54-7.07-3.15-10.15c-1.96-9.92-3.41-19.88-4.66-29.26c-6.26-0.2-12.46-1.19-18.47-2.95
			c-3.14-0.92-7.88-2.53-12.73-5.92c-8.21-5.75-13.21-14.45-13.7-23.87c-0.5-9.45,3.58-18.67,11.19-25.29
			c4.52-3.93,9.18-5.97,11.97-7.18c3.88-1.7,7.59-3.37,10.38-5.24c2.19-1.47,4.27-3.35,6.36-5.75l0.95-1.1
			c3-3.44,5.56-6.38,7.17-9.11c1.44-2.41,3-5.18,3.69-7.42c1.23-4.02,0.89-5.58,0.76-6.16c-0.97-4.48-1.93-9.34-2.37-14.71
			c-1.08-2.2-1.82-4.24-2.34-5.81c-1.48-4.4-2-8.84-1.53-13.19c0.25-2.31,1.29-8.08,5.5-13.37c2.37-11.17,6.59-21.96,12.57-32.14
			c-1.35-0.68-2.67-1.39-3.95-2.14c-5.62-3.29-10.53-7.37-14.58-12.13c-4.2-4.92-6.88-10.44-7.99-16.39
			c-2.86-15.47,5.45-30,20.22-35.32c6.42-2.33,13.38-2.79,20.33-1.32c4.12,0.87,7.82,1.29,11.33,1.29l0.23,0
			c2.01-0.01,3.55-0.28,4.74-0.82c7.43-3.37,13.27-7.62,17.84-12.98c4.89-5.74,9.33-12.02,13.55-19.2c0.67-1.12,1.32-2.25,1.98-3.37
			l0.99-1.7c3.55-6.08,7.58-12.98,11.89-19.65c5.2-8.02,10.76-15.93,16.53-23.5c8.47-11.09,19.92-19.27,34.05-24.3
			c8.15-2.9,17.09-4.9,28.13-6.27c4.46-0.56,9.13-0.84,13.88-0.84c11.48,0,22.3,1.65,30.44,3.09c10.84,1.92,23.65,4.51,36.51,9.18
			c0.68,0.25,1.35,0.49,2.02,0.73c4,1.44,8.87,3.19,13.8,5.5c1.42-0.92,2.83-1.83,4.22-2.72l1.32-0.85c0.83-0.53,1.65-1.06,2.47-1.6
			c11.88-7.74,24.39-11.1,35.06-13.38c6.86-1.46,14.19-2.33,22.4-2.63c1.03-0.04,2.14-0.06,3.36-0.06c13.96,0,27.57,3.31,40.46,9.85
			c6.72,3.41,11.99,8.04,15.65,13.77l2.52,2.37c1.27,1.19,2.53,2.39,3.79,3.59c4.77,4.55,8.86,9.17,12.49,14.11
			c1,1.36,2.26,2.88,3.6,4.49l0.28,0.33c0.61,0.73,1.21,1.46,1.82,2.19l0.5,0.62c2.25,2.72,5.32,6.44,7.75,11.58
			c3.81,4.23,7.94,8.62,12.42,12.25c5.81,4.69,12.17,7.85,19.43,9.67c0.32,0.08,0.9,0.17,1.81,0.17c0.83,0,1.77-0.08,2.78-0.23
			c3.33-0.48,6.23-1.21,8.88-2.23c6.36-2.44,12.86-3.34,19.18-2.67c8.96,0.95,16.79,5.31,22.03,12.3
			c5.25,6.99,7.26,15.73,5.68,24.62c-1.2,6.7-4.18,12.77-9.12,18.58c-3.62,4.26-7.69,7.99-12.11,11.14
			c8.57,10.63,14.87,22.44,18.78,35.19c3.54-1.62,7.39-2.46,11.3-2.46c6.57,0,12.95,2.38,17.97,6.71c8.16,7.03,11.5,17.87,8.7,28.29
			c-1.43,5.34-4.2,9.98-8.47,14.19c-2.1,2.07-4.86,4.74-8.09,7.63c2.35-0.74,4.83-1.82,7.51-3.24l1.44-0.78
			c1.1-0.6,2.31-1.25,3.64-1.92c4.75-2.37,10.04-3.64,15.3-3.68h0.22c9.24,0,17.84,4.01,23.61,10.99c5.78,7,8.08,16.24,6.33,25.35
			c-0.92,4.75-2.79,9.27-5.74,13.82c-2.79,4.3-5.71,7.61-8.28,10.53c-4.78,5.42-9.96,10.48-15.52,15.15
			c0.37-0.01,0.74-0.02,1.11-0.02c10.69,0,20.3,5.41,25.71,14.48c6.4,10.73,5.4,23.8-2.61,34.1v0c-3.14,4.03-6.99,7.51-11.46,10.34
			l-0.25,0.16c-3.26,2.07-6.96,4.42-10.95,6.66c-12.71,7.11-27.04,12.42-45.12,16.69c-11.5,2.71-22.33,4.03-33.1,4.03
			c-1.68,0-3.34-0.03-4.97-0.09c0.07,1.62,0.09,3.18,0.08,4.72c-0.2,23.26-6.5,44.99-18.72,64.57
			c-6.17,9.88-13.68,19.71-23.62,30.93c-1.58,1.79-3.28,3.62-5.2,5.6c2.12,0.62,4.42,1.47,6.8,2.67
			c8.71,4.41,14.81,12.17,16.75,21.29c1.94,9.1-0.47,18.63-6.59,26.17c-4.58,5.63-10.48,9.83-18.03,12.83
			c-5.54,2.2-11.36,3.67-17.8,4.49C639.7,781.07,636.07,781.31,632.59,781.31z M619.75,774.07l0.62,0.12
			c7.01,1.31,14.38,1.46,22.25,0.45c5.93-0.75,11.27-2.1,16.34-4.11c6.57-2.61,11.67-6.22,15.59-11.04
			c4.98-6.12,6.94-13.82,5.38-21.13c-1.56-7.34-6.51-13.6-13.59-17.19c-3.91-1.98-7.68-2.84-10.52-3.37l-5.6-1.05l4.04-4.03
			c3.47-3.47,6.24-6.38,8.71-9.16c9.72-10.96,17.03-20.54,23.02-30.12c11.63-18.62,17.62-39.3,17.81-61.44
			c0.02-2.42-0.06-4.9-0.25-7.6l-0.24-3.34l3.35,0.13c0.45,0.02,0.89,0.04,1.33,0.07c2.14,0.12,4.41,0.18,6.7,0.18
			c10.3,0,20.68-1.27,31.72-3.87c17.52-4.14,31.37-9.26,43.57-16.09c3.85-2.16,7.48-4.46,10.67-6.49l0.26-0.16
			c3.88-2.46,7.22-5.48,9.93-8.96c6.46-8.3,7.3-18.78,2.19-27.34c-4.32-7.23-12-11.55-20.56-11.55c-1.4,0-2.86,0.11-4.32,0.34
			c-2.82,0.44-5.04,1.22-6.67,1.79l-0.55,0.2c-0.49,0.17-0.91,0.32-1.31,0.46l-21.94,7.97l19.21-13.26
			c9.43-6.51,17.99-14.09,25.42-22.52c2.5-2.84,5.26-5.98,7.81-9.9c2.52-3.88,4.11-7.71,4.88-11.69c1.42-7.34-0.43-14.77-5.06-20.39
			c-4.63-5.6-11.55-8.81-18.99-8.81h-0.2c-4.33,0.03-8.71,1.08-12.64,3.05c-1.25,0.62-2.4,1.25-3.47,1.83l-0.62,0.33
			c-0.29,0.16-0.58,0.31-0.87,0.47c-7.56,4-13.96,5.6-20.22,5.15l-7.75-0.55l6.11-4.8c6.35-4.99,11.57-9.98,15.41-13.78
			c3.49-3.45,5.74-7.2,6.89-11.48c2.19-8.17-0.42-16.67-6.82-22.19c-3.93-3.39-8.93-5.25-14.06-5.25c-4,0-7.92,1.13-11.33,3.27
			l-3.58,2.31l-1.15-3.93c-3.83-14.34-10.81-27.49-20.74-39.07l-2.26-2.63l2.93-1.85c5.02-3.18,9.59-7.17,13.58-11.85
			c4.23-4.97,6.78-10.12,7.78-15.74c1.29-7.24-0.33-14.33-4.57-19.97c-4.23-5.63-10.58-9.16-17.86-9.93
			c-5.37-0.56-10.93,0.21-16.4,2.31c-3.07,1.18-6.39,2.02-10.16,2.56c-2.68,0.4-5.08,0.39-6.91-0.06
			c-8.14-2.04-15.25-5.58-21.76-10.83c-4.92-3.99-9.36-8.72-13.41-13.23l-0.3-0.34l-0.19-0.41c-2.14-4.65-4.91-8-7.13-10.69
			l-0.51-0.62c-0.59-0.72-1.2-1.44-1.8-2.17l-0.28-0.33c-1.4-1.68-2.72-3.27-3.82-4.78c-3.42-4.66-7.29-9.02-11.8-13.33
			c-1.25-1.2-2.5-2.38-3.76-3.56l-3.07-2.89l-0.21-0.33c-3.08-4.94-7.62-8.95-13.48-11.93c-13-6.59-26.78-9.7-40.88-9.14
			c-7.87,0.3-14.86,1.12-21.38,2.51c-10.13,2.16-21.98,5.33-33.03,12.53c-0.83,0.54-1.67,1.08-2.51,1.62l-1.32,0.85
			c-1.85,1.18-3.71,2.38-5.59,3.61l-1.43,0.95l-1.54-0.76c-5.15-2.53-10.24-4.36-14.73-5.98c-0.68-0.24-1.37-0.49-2.05-0.74
			c-12.41-4.51-24.91-7.03-35.5-8.91c-7.9-1.4-18.38-3-29.39-3c-4.5,0-8.92,0.27-13.14,0.8c-10.6,1.32-19.14,3.22-26.86,5.97
			c-13.01,4.63-23.54,12.13-31.29,22.28c-5.68,7.45-11.15,15.23-16.27,23.12c-4.24,6.55-8.23,13.39-11.75,19.42l-0.99,1.69
			c-0.66,1.13-1.32,2.27-1.99,3.39c-4.4,7.48-9.03,14.04-14.16,20.05c-5.15,6.04-11.67,10.8-19.92,14.55
			c-1.98,0.9-4.32,1.34-7.15,1.35l-0.25,0c0,0-0.01,0-0.01,0c-3.99,0-8.1-0.47-12.62-1.42c-5.86-1.24-11.67-0.86-17.05,1.09
			c-11.95,4.31-18.68,16.06-16.36,28.59c0.91,4.91,3.15,9.48,6.66,13.59c3.61,4.24,8,7.89,13.04,10.84c2.05,1.2,4.22,2.31,6.43,3.29
			l3.17,1.4l-1.84,2.93c-6.67,10.62-11.27,21.98-13.68,33.77l-0.16,0.75l-0.5,0.59c-3.55,4.17-4.4,8.9-4.61,10.73
			c-0.37,3.47,0.05,7.05,1.25,10.63c0.5,1.5,1.22,3.48,2.27,5.54l0.28,0.54l0.04,0.6c0.39,5.23,1.34,10.05,2.3,14.47
			c0.37,1.71,0.61,4.31-0.89,9.21c-0.88,2.85-2.57,5.87-4.27,8.72c-1.89,3.19-4.62,6.32-7.78,9.95l-0.97,1.13
			c-2.44,2.81-4.91,5.04-7.55,6.81c-3.2,2.15-7.18,3.95-11.32,5.76c-2.63,1.15-6.61,2.88-10.43,6.21
			c-6.21,5.4-9.54,12.85-9.13,20.45c0.4,7.56,4.46,14.59,11.15,19.27c4.12,2.88,8.23,4.28,10.97,5.07
			c6.23,1.82,12.68,2.75,19.17,2.75h2.97l0.27,2.7c0.01,0.13,0.03,0.26,0.05,0.39c1.3,9.89,2.79,20.48,4.87,30.97
			c0.54,2.71,1.24,5.65,2.7,8.77c4.1,8.74,12.36,14.17,21.54,14.17c6.8,0,13.36-3.09,18.01-8.47l2.11-2.44l2.28,2.28
			c0.07,0.07,0.14,0.14,0.21,0.22l0.44,0.48l0.24,0.66c0.63,1.95,1.39,3.52,1.84,4.45l0.08,0.17c0.07,0.14,0.13,0.28,0.19,0.41
			c4.01,9.04,8.47,17.72,13.24,25.76c8.49,14.32,17.24,26.06,26.76,35.89c8.68,8.96,18.64,17.17,29.61,24.4
			c6.68,4.4,13.49,8.76,20.08,12.97l3.79,2.42c1.48,0.95,2.96,1.89,4.44,2.84c1.87,1.2,3.7,2.13,5.57,2.84
			c2.71,1.02,5.54,1.54,8.42,1.54c6.23,0,12.3-2.54,16.63-6.98c0.61-0.62,1.19-1.29,1.74-1.98l1.52-1.95l2.2,1.12
			c1.27,0.64,2.53,1.28,3.79,1.9c14.8,7.27,28.44,12.61,41.71,16.33c18.69,5.23,36.42,7.8,54.2,7.84h0.2c2.93,0,5.7-0.16,8.14-0.3
			c1.58-0.09,3.26-0.19,4.83-0.23c8.36-0.19,16.42-0.97,24.2-1.73l2.51-0.24c0.34-0.04,0.73-0.07,1.11-0.1l1.17-0.09l0.92,0.73
			c12.72,10.05,26.85,16.36,38.99,21.21c1.26,0.5,2.33,0.8,2.96,0.98l0.8,0.25c5.69,1.72,11.36,1.95,16.84,0.69L619.75,774.07z"/>
	</g>
	<g>
		<g>
			<path class="st1" d="M280.43,526.43c-2.21-5.74-3.28-11.9-3.69-18.07c-0.95-14.09,1.97-29.37,11.78-39.18
				c9.8-9.81,27.66-11.36,36.37-0.53c4.6-35.02,23.08-67.1,47.69-91.56c24.6-24.46,55.04-41.83,86.63-55.03
				c20.29-8.48,41.75-15.44,63.59-14.44c25.58,1.16,49.59,13.17,70.9,27.88c18.19,12.56,35.34,27.64,46.4,47.2
				c11.06,19.56,15.32,44.21,7.26,65.32c6.48-8.54,17.74-12.77,28.03-10.77s19.2,10.03,22.81,20.23c3.9,11.01,1.8,23.32-1.44,34.58
				c-3.81,13.21-9.72,26.7-20.83,34.25c-11.12,7.56-28.52,6.31-35.12-5.63c-18,49.82-54.07,92.37-99.39,117.25
				c-8.87,4.87-18.17,9.12-28.01,11.17c-20.4,4.26-41.38-1.13-61.52-6.49c-25.19-6.7-51.4-13.95-70.91-31.78
				c-10.78-9.85-18.76-22.39-25.37-35.51c-2.98-5.91-4.93-14.88-8.94-19.92c-5.57-7-3.74-4.28-12.45-2.4
				C313.13,557.56,288.87,548.36,280.43,526.43z"/>
		</g>
		<g>
			<path class="st2" d="M574.02,519.51c-13.11,11.39-19.78,28.74-21.96,45.96c-1.09,8.58-1.12,17.6,2.31,25.54
				c3.43,7.94,11,14.56,19.65,14.75c9.87,0.21,17.98-7.45,24.43-14.92c9.34-10.83,17.79-22.44,25.24-34.65
				c5.26-8.63,13.9-19.25,10.04-29.83C624.69,501.66,590.07,505.56,574.02,519.51z"/>
		</g>
		<g>
			<path class="st3" d="M548.82,423.64c12.91,26.09,42.66,40.1,71.57,43.5c-14.95-18-26.08-39.15-32.45-61.66
				c9.74,22.46,29.87,40.17,53.39,46.97c9.96,2.88,20.36,3.88,30.71,4.39c17.75,0.87,35.96,0.26,52.58-6.03
				c8.12-3.07,16.69-8.9,17.19-17.57c-10.87,4.29-22.45,6.81-34.12,7.42c5.46,0.13,7.74-6.94,7.8-12.4
				c0.44-38.36-28.83-74.99-66.34-83.03c15.35,3.12,31.28,3.42,46.74,0.9c10.01-1.63,21.81-6.68,22.57-16.8
				c-14.29,1.49-28.74,2.98-43,1.19c-14.26-1.79-28.53-7.19-38.42-17.62c-8.95-9.43-13.59-22.07-21.03-32.73
				c-11.62-16.65-30.39-28.13-50.5-30.88s-41.28,3.25-56.95,16.16c-4.91,4.04-10.27,9.06-16.57,8.18c-2.89-0.4-5.44-2.03-7.96-3.48
				c-29.77-17.15-63.16-18.96-97.19-14.24c-12.66,1.76-24.27,11.36-33.72,19.97c-8.92,8.12-13.64,19.76-21.91,29.31
				c-12.67,14.62-15.1,36.44-29.82,48.99c-14.72,12.55-38.29,13.68-55.51,4.85c-3.67,18.61,24.06,29.31,70.27,7.36
				c-18.02,12.78-31.56,25.32-44.67,43.1c-13.11,17.78-17.36,42.01-10.43,62.99c2.45-6.71,10.95-9.3,17.99-8.06
				c7.03,1.24,13.23,5.22,19.83,7.93c28.08,11.55,61.49-1.3,82.55-23.18c21.06-21.88,32.4-51.09,42.9-79.59
				c-3.59,35.93-16.78,70.86-37.85,100.18c25.65-10.7,53.8-23.86,63.99-49.72c6.32-16.05,4.33-34.08,1.15-51.03
				c-3.81-20.3,51.69-29.45,67.68-28.94c23.78,0.75,21.53,11.73,21.29,31.99C540.38,389.54,540.9,407.65,548.82,423.64z"/>
		</g>
		<g>
			<path class="st3" d="M279.05,462.89c-6.88-0.28-14.01-5.09-17.54,0.82c-3.53,5.91-4.06,22.5-5.97,29.12
				c-6.58,22.71-20.93,45.05-43.31,52.67c14.94,6.75,34.22,1.91,44.2-11.1c-5.37,20.74-4.42,43.07,2.7,63.28
				c3.8-5.39,7.6-10.77,11.39-16.16c0.97-1.37,2.11-2.86,3.77-3.1c1.92-0.29,3.6,1.2,4.94,2.59c20.49,21.32,34.07,48.15,50.18,72.94
				c16.11,24.8,36.28,48.8,63.91,59.35c-6.74-13.88-13.48-27.76-20.22-41.63c33.47,15.04,55.61,40.63,94.63,50.11
				c10.39,2.53,25.42,3.82,35.97,5.58c10.18,1.7,20.58,0.86,30.9,0.9c24.61,0.09,49.19,5.27,71.75,15.12
				c8.54,3.73,16.97,8.17,26.2,9.44c9.23,1.26,19.74-1.45,24.77-9.29c-7.37-4.29-16.21-5.49-23.65-9.66
				c-17.09-9.57-22.37-32.84-17.23-51.74c5.14-18.9,18.24-34.46,30.97-49.35c-10.9,24.21-19.03,49.67-24.18,75.72
				c22.55-13.03,38.4-35.68,47.45-60.1c9.05-24.42,6.04-45.97,7.37-71.98c18.13,0.34,42.09-4.03,60.22-3.69
				c6.19,0.12,12.63,0.18,18.25-2.41c5.62-2.59,27.61-10.41,26.29-16.46c-12.29,1.35-42.5,4.37-54.24,0.5
				c-11.74-3.88-22.22-14.47-21.81-26.83c14.78-1.77,29.97-3.66,43.06-10.77c13.08-7.1,38.34-23.14,37.42-38
				c-58.38,13.55-66.55-0.54-74.63-23.68c-5.94-1.53-11.44,4.63-12.21,10.71c-0.78,6.08-1.34,11.83-0.4,17.88
				c2.3,14.74-9.13,31.92-21.31,40.53c-12.18,8.61-21.88,7.93-33.78-1.05c-13.38,26.44-27.05,53.29-47.4,74.83
				c-26.49,28.03-63.72,45.49-102.16,48.58c-38.44,3.09-77.76-8.1-109.2-30.44c-22.96-16.32-42.54-40.22-45.35-68.25
				c-11.04,11.68-29.53,18.75-43.33,10.51c-11.56-6.91-15.58-21.72-16.33-35.16c-0.83-14.84,1.09-29.83,5.63-43.98
				c0.84-2.61,2-4.03,4.53-3.1C289.85,469.78,286.59,463.2,279.05,462.89z"/>
		</g>
		<g>
			<path class="st4" d="M435.15,566.86c-6.39,6.19-9.72,15.09-10.35,23.96c-0.61,8.75,2.02,18.71,9.73,22.89
				c4.11,2.23,9.01,2.45,13.68,2.19c15.6-0.84,30.91-6.46,43.35-15.9c5.53-4.19,11.17-9.38,18.11-9.41
				c6.7-0.03,12.29,4.78,18.4,7.53c6.66,2.99,14.38,3.52,21.39,1.48c3.04-0.89,6-2.29,8.2-4.56c4.49-4.64,4.89-12.07,2.88-18.2
				c-8.59-26.29-35.78-16.71-56.06-18.75C482.73,555.9,452.79,549.79,435.15,566.86z"/>
		</g>
		<g>
			<path class="st5" d="M464.19,567.94c7.32,10.05,21.94,11.11,34.18,8.94c7.37-1.3,15.06-3.72,19.85-9.47
				c2.43-2.91,3.69-7.8,0.71-10.15c-1.21-0.96-2.82-1.21-4.34-1.4C504.76,554.58,449.74,548.1,464.19,567.94z"/>
		</g>
		<g>
			<path class="st2" d="M404.85,532.84c12.55,12.01,18.38,29.65,19.73,46.96c0.67,8.63,0.28,17.63-3.53,25.4
				c-3.81,7.77-11.68,14.02-20.33,13.79c-9.87-0.26-17.6-8.3-23.68-16.08c-8.81-11.27-16.69-23.27-23.55-35.82
				c-4.84-8.87-12.96-19.9-8.6-30.27C355.09,512.58,389.49,518.14,404.85,532.84z"/>
		</g>
		<g>
			<g>
				<path d="M675.75,355.52c1.13,0.82,2.25,1.65,3.38,2.47c7.26,5.28,14.04,11.1,20.17,17.67c11.36,12.17,18.56,26.41,21.23,42.84
					c0.7,4.32,0.8,8.75,1.16,13.12c0.08,0.94,0.03,1.89,0.17,2.81c0.13,0.87,0.73,1.44,1.63,1.33c1.4-0.17,2.8-0.39,4.16-0.74
					c4.57-1.18,9.01-2.73,13.26-4.82c2.84-1.4,5.52-2.97,7.73-5.29c0.75-0.79,1.62-1.49,2.54-2.07c1.15-0.72,2.5-0.53,3.5,0.34
					c1.05,0.91,1.39,2.06,1.03,3.4c-0.34,1.26-1.14,2.24-2.03,3.12c-8.52,8.42-17.54,16.2-28.2,21.86c-0.69,0.37-1.39,0.74-2.09,1.1
					c-1.39,0.71-2.04,1.87-2.19,3.39c-0.29,2.97-0.55,5.94-0.96,8.9c-0.41,2.99,0.57,5.13,3.2,6.71c2.83,1.7,5.66,3.39,8.74,4.6
					c6.05,2.36,12.37,3.56,18.8,4.1c11.02,0.94,21.13-2.12,30.75-7.2c1.53-0.81,3.03-1.66,4.57-2.43c1.42-0.71,2.96-1.1,4.55-1.11
					c4.06-0.03,6.73,3.23,5.96,7.22c-0.36,1.88-1.22,3.55-2.25,5.15c-1.8,2.78-3.98,5.25-6.16,7.73
					c-9.02,10.24-19.53,18.64-31.35,25.39c-10.31,5.89-21.38,9.83-33,12.22c-1.38,0.28-2.76,0.6-4.13,0.94
					c-1.41,0.35-2.57,1.13-3.58,2.16c-1.19,1.22-1.65,2.61-1.17,4.3c0.6,2.15,1.58,4.07,2.96,5.84c3.39,4.37,7.9,7.14,12.96,9.07
					c4.87,1.85,9.95,2.87,15.15,3.24c11.08,0.78,21.94-0.74,32.67-3.32c2.73-0.66,5.32-1.88,7.99-2.81c1.33-0.46,2.67-0.99,4.05-1.2
					c2.47-0.38,4.77,0.06,6.17,2.41c1.41,2.37,0.64,4.55-0.91,6.54c-1.46,1.88-3.24,3.43-5.24,4.7c-3.31,2.1-6.63,4.21-10.06,6.13
					c-12.17,6.81-25.3,11.04-38.8,14.23c-10.91,2.58-21.95,3.85-33.18,3.22c-6.58-0.37-13.2-0.1-19.74-1.23
					c-0.76-0.13-1.57-0.06-2.34,0.04c-2.68,0.36-3.53,1.24-3.69,3.97c-0.15,2.67-0.01,5.33,0.4,7.99c0.94,6.05,1.76,12.14,1.7,18.27
					c-0.16,18.66-5.1,35.95-15.01,51.82c-6.18,9.9-13.46,18.94-21.18,27.65c-5.95,6.71-12.55,12.77-18.87,19.11
					c-0.44,0.44-0.91,0.87-1.37,1.3c-1.81,1.72-3.84,2.72-6.41,1.9c-0.44-0.14-0.92-0.18-1.47,0.64c1.25,2.84,2.96,5.63,5.36,7.9
					c5.28,5.01,11.19,9.13,18.04,11.78c2.05,0.79,4.17,1.35,6.35,1.73c2.47,0.43,4.97,0.84,7.24,1.99
					c4.29,2.17,5.26,6.45,2.23,10.18c-2.13,2.62-4.98,4.3-8.08,5.54c-3.81,1.52-7.79,2.44-11.86,2.95
					c-5.96,0.76-11.92,0.75-17.8-0.55c-2.24-0.5-4.38-0.5-6.49,0.17c-2.99,0.96-5.88,0.72-8.79-0.24c-0.6-0.2-1.22-0.32-1.8-0.55
					c-12.88-5.14-25.38-10.99-36.14-19.96c-2.89-2.41-6.16-3.7-9.99-3.39c-1.56,0.13-3.13,0.22-4.69,0.37
					c-8.44,0.81-16.87,1.7-25.35,1.89c-4.23,0.1-8.45,0.53-12.7,0.52c-16.77-0.04-33.15-2.65-49.26-7.16
					c-13.36-3.74-26.12-9.01-38.54-15.12c-12.42-6.11-24.36-13.06-35.96-20.61c-0.92-0.6-1.87-1.14-2.82-1.69
					c-0.12-0.07-0.31-0.02-0.52-0.02c-0.89,0.66-0.21,1.38,0.1,1.98c1.73,3.35,3.55,6.65,5.3,9.99c1.24,2.37,2.43,4.75,3.6,7.15
					c0.62,1.28,1.08,2.62,1.11,4.06c0.08,3.69-3.29,6.08-6.77,4.77c-0.73-0.27-1.43-0.66-2.08-1.09
					c-9.38-6.02-18.81-11.98-28.12-18.12c-9.6-6.33-18.5-13.57-26.51-21.83c-9.45-9.75-17.22-20.79-24.13-32.45
					c-4.57-7.71-8.63-15.69-12.26-23.88c-0.57-1.29-1.31-2.56-1.6-3.92c-0.6-2.74-2.18-4.77-4.02-6.76
					c-5.45-5.87-11.1-11.57-16.1-17.84c-2.23-2.8-4.46-5.62-6.75-8.51c-1.32,0.95-1.34,2.27-1.69,3.4
					c-1.82,5.85-3.54,11.73-5.41,17.56c-0.52,1.63-1.23,3.27-2.2,4.67c-2.7,3.92-7.28,3.5-9.32-0.85c-0.66-1.4-1-2.98-1.3-4.51
					c-1.95-9.86-3.36-19.81-4.67-29.78c-0.85-6.42-0.79-12.84-0.55-19.29c0.04-1.19,0.53-2.48-0.37-3.57
					c-1.08-0.35-1.83,0.42-2.69,0.7c-10.57,3.39-21.21,4.13-31.99,0.98c-1.97-0.58-3.88-1.3-5.57-2.48
					c-4.22-2.95-4.4-7.22-0.48-10.64c1.69-1.47,3.71-2.35,5.72-3.23c4.9-2.14,9.75-4.35,14.21-7.35c4.2-2.83,7.88-6.21,11.19-10.03
					c3.81-4.39,7.69-8.71,10.68-13.74c2.42-4.07,4.65-8.21,6.05-12.74c1.87-6.07,2.66-12.19,1.28-18.56
					c-1-4.59-1.88-9.24-2.04-13.97c-0.07-1.92-0.66-3.66-1.71-5.31c-0.75-1.17-1.24-2.53-1.69-3.86c-0.29-0.87-0.48-1.85-0.39-2.74
					c0.12-1.12,1.31-1.2,2.14-1.56c1.32-0.57,1.77-1.71,1.97-3c0.26-1.71,0.42-3.43,0.75-5.13c2.61-13.37,8.45-25.28,16.73-36
					c5.28-6.84,10.95-13.36,17.53-19.03c0.19-0.17,0.2-0.55,0.33-0.93c-1.42-0.62-2.72,0.31-4.07,0.32
					c-1.41,0.01-2.82,0.22-4.23,0.3c-10.25,0.56-20.02-1.11-29-6.37c-3.14-1.84-5.95-4.1-8.31-6.88c-1.24-1.46-2.2-3.07-2.55-4.98
					c-0.67-3.59,1.02-6.6,4.46-7.84c2.26-0.82,4.56-0.9,6.95-0.4c5.54,1.17,11.14,1.86,16.83,1.82c5.1-0.03,10.01-0.9,14.66-3.01
					c10.14-4.6,19.07-10.85,26.35-19.38c6.04-7.08,11.32-14.66,16.03-22.67c4.7-7.99,9.28-16.06,14.31-23.83
					c4.86-7.51,10.02-14.85,15.45-21.96c5.86-7.68,13.71-12.85,22.8-16.09c7.43-2.65,15.14-4.07,22.96-5.05
					c12.47-1.56,24.77-0.1,37.01,2.06c10.98,1.95,21.89,4.26,32.41,8.08c5.16,1.88,10.37,3.65,15.3,6.11
					c2.96,1.48,5.76,3.2,8.35,5.28c1.49,1.19,1.71,1.14,3.25-0.09c5.9-4.73,12.36-8.62,18.67-12.73c8.16-5.32,17.37-7.94,26.79-9.94
					c6.01-1.28,12.12-1.88,18.23-2.12c11.21-0.43,21.83,2.09,31.83,7.16c2.7,1.37,5.09,3.15,6.55,5.9c0.68,1.28,1.69,2.25,2.72,3.22
					c2.29,2.16,4.58,4.3,6.85,6.47c3.53,3.37,6.78,6.98,9.68,10.92c2.04,2.78,4.32,5.39,6.51,8.06c2.09,2.55,4.28,5.04,5.49,8.17
					c0.64,1.65,1.78,2.95,2.93,4.24c4.93,5.5,10.02,10.86,15.78,15.51c8.56,6.91,18.21,11.71,28.88,14.38
					c4.61,1.15,9.35,1.11,14.05,0.43c4.83-0.7,9.56-1.85,14.13-3.6c2.54-0.97,5.13-1.47,7.84-1.18c4.4,0.47,6.97,3.86,6.18,8.27
					c-0.48,2.71-1.91,4.97-3.66,7.02c-4.79,5.63-10.64,9.73-17.63,12.18c-5.36,1.88-10.84,3.17-16.53,3.55c-2,0.14-4,0.44-5.99,0.67
					C675.87,354.9,675.81,355.21,675.75,355.52z M278.94,462.07c9.69,4.6,19.65,7.34,29.97,8.65c6.11,0.78,12.21,0.39,18.32-0.37
					c7.81-0.97,15.52-2.21,22.88-5.18c5.7-2.3,11.25-4.86,16.35-8.31c1.04-0.7,2.1-1.41,2.98-2.29c5.11-5.1,10.21-10.22,15.24-15.4
					c3.84-3.95,7.29-8.22,10.26-12.88c5.1-7.99,8.9-16.6,12.26-25.43c2.96-7.78,5.79-15.61,8.75-23.4c0.95-2.49,1.95-4.98,3.18-7.35
					c1.53-2.96,3.72-4.22,5.9-3.78c2.48,0.5,4.03,2.6,4.05,6.14c0.01,3.61-0.03,7.26-0.58,10.81c-1.56,10.11-3.88,20.05-7.37,29.68
					c-2.35,6.5-4.78,12.97-7.41,19.36c-1.48,3.62-2.78,7.37-5.11,10.58c-4.8,6.63-8.55,13.9-12.83,20.85
					c-0.11,0.18,0.08,0.55,0.19,1.16c2.83-1.02,5.45-2.37,8.07-3.71c1.81-0.93,3.6-1.99,5.51-2.64c4.56-1.54,8.57-3.93,11.86-7.42
					c6.36-6.74,12.64-13.55,18.92-20.37c1.28-1.39,2.28-2.98,3.11-4.7c4.69-9.77,7.16-20.03,7.57-30.88
					c0.44-11.54-0.78-22.9-2.93-34.19c-1.82-9.57-3.76-19.11-5.62-28.67c-0.76-3.89-0.8-7.87-0.17-11.73
					c1.25-7.72,5.32-13.38,13.04-15.79c5.05-1.58,10.25-1.63,15.37-0.36c9.62,2.39,17,7.85,21.86,16.59
					c0.57,1.03,0.74,2.41,2.06,2.92c1-0.79,1.12-1.94,1.54-2.94c2.06-4.88,5.1-9.05,9.24-12.32c7.74-6.12,16.38-9.15,26.35-7.09
					c5.76,1.19,9.97,4.43,12.67,9.62c2,3.85,2.77,7.97,2.79,12.28c0.04,7.1-1.21,14.07-1.93,21.1c-0.52,5-1.39,9.97-1.68,14.97
					c-0.43,7.37-0.65,14.76-0.65,22.14c0.01,9.83,1.95,19.35,5.35,28.57c1.7,4.61,3.96,8.92,7.29,12.56
					c4.76,5.22,9.52,10.46,14.49,15.49c3.77,3.81,8.13,6.97,13.04,9.16c2.29,1.02,4.58,2.06,6.88,3.06
					c3.89,1.69,7.82,3.28,11.74,4.88c0.56,0.23,1.21,0.36,1.81,0.35c0.51-0.01,0.84-0.56,0.62-0.99c-0.43-0.82-1.01-1.58-1.58-2.32
					c-3.17-4.1-6.44-8.14-8.95-12.7c-1.97-3.58-4.17-7.01-6.5-10.38c-2.04-2.94-3.95-6.01-5.59-9.18
					c-2.52-4.88-4.93-9.84-7.09-14.89c-4.01-9.4-7.46-19.01-9.46-29.08c-0.49-2.46-0.93-4.94-1.23-7.43
					c-0.23-1.87-0.27-3.78,0.49-5.58c1.25-2.95,4.49-3.87,6.97-1.91c0.97,0.76,1.8,1.76,2.47,2.8c0.93,1.45,1.72,3,2.46,4.56
					c3.63,7.67,7.17,15.38,10.84,23.03c3.27,6.8,6.68,13.52,10.87,19.82c1.48,2.22,2.85,4.53,5.21,5.99
					c1.11,0.69,1.63,1.88,2.29,2.95c3.42,5.53,7.79,10.26,12.59,14.57c12.9,11.61,28.14,18.26,45.25,20.42
					c13.22,1.67,26.34,1.09,39.09-3.4c4.57-1.61,9.22-3.01,13.84-4.49c1.66-0.53,3.21-1.28,4.58-2.36c0.38-0.3,0.75-0.75,0.41-1.19
					c-0.24-0.31-0.78-0.52-1.18-0.52c-0.78-0.01-1.57,0.08-2.33,0.26c-5.59,1.34-11.14,1.16-16.81,0.2
					c-7.39-1.26-14.3-3.61-20.69-7.47c-3.64-2.2-7.02-4.74-9.94-7.88c-1.98-2.12-3.28-4.58-4.11-7.32c-0.33-1.08,0.48-1.8,1.59-1.57
					c1.43,0.3,2.61,1.05,3.77,1.86c2.06,1.44,4.12,2.89,6.17,4.33c3.35,2.35,6.91,4.37,10.64,6.03c5.05,2.24,10.25,4.03,15.86,4.11
					c2.2,0.03,4.38,0.02,6.58,0.33c2.05,0.29,2.93-0.63,2.76-2.71c-0.32-3.91-0.58-7.83-1.05-11.72
					c-1.34-11.1-4.93-21.43-11.35-30.62c-11.21-16.06-25.73-28.25-43.48-36.59c-3.41-1.6-6.75-3.36-10.07-5.14
					c-2.23-1.2-4.18-2.8-5.77-4.78c-1.16-1.44-1.7-3.06-0.7-4.79c1.01-1.75,2.7-1.99,4.52-1.79c1.9,0.2,3.65,0.95,5.37,1.7
					c4.78,2.07,9.76,3.47,14.83,4.58c8.58,1.88,17.13,1.9,25.63-0.51c6.78-1.92,12.89-4.97,17.64-10.33
					c0.47-0.53,1.22-1.03,0.78-1.96c-1-0.34-1.85,0.16-2.7,0.48c-3.98,1.53-8.11,2.44-12.28,3.25c-7.38,1.43-14.72,1.23-21.9-0.96
					c-10.77-3.28-20.79-8.1-29.44-15.41c-3.59-3.04-6.99-6.32-10.36-9.61c-7.56-7.37-13.85-15.85-20.52-23.97
					c-5.4-6.58-10.9-12.99-17.26-18.63c-4.76-4.23-10.2-7.37-16.36-9.03c-5.63-1.51-11.39-1.84-17.26-1.59
					c-11.7,0.51-23.11,2.31-34.17,6.18c-7.57,2.65-15.14,5.34-21.13,11.04c-0.34,0.32-0.75,0.56-1.15,0.82
					c-1.7,1.12-3.45,2.86-5.48,2.38c-3.48-0.82-7.2,0.15-10.5-1.58c-0.14-0.07-0.27-0.17-0.4-0.25c-4.99-3.38-10.57-5.49-16.19-7.53
					c-14.39-5.23-29.27-8.34-44.39-10.46c-14.32-2.01-28.48-1.77-42.51,2.07c-10.32,2.82-19.1,7.94-25.42,16.79
					c-1,1.41-2.1,2.75-3.04,4.2c-4.1,6.35-8.58,12.4-13.54,18.1c-0.62,0.71-1.19,1.47-1.67,2.27c-3.01,4.97-6.06,9.92-8.98,14.95
					c-4.42,7.62-9.25,14.94-14.63,21.94c-6.91,8.99-15.29,16.18-25.02,21.88c-5.32,3.12-10.91,5.58-17,6.73
					c-7.35,1.39-14.7,0.8-22.04-0.14c-1.24-0.16-2.43-0.65-3.71-0.4c-0.14,0.03-0.37,0.13-0.38,0.23c-0.05,0.29-0.14,0.72,0.01,0.87
					c0.76,0.78,1.52,1.6,2.42,2.19c3.16,2.09,6.52,3.85,10.21,4.74c8.83,2.13,17.7,2.48,26.55,0.05c6.56-1.79,12.69-4.57,18.59-7.92
					c2.18-1.24,4.22-2.79,6.7-3.41c3.09-0.78,5.7,1.96,4.76,5c-0.27,0.88-0.77,1.72-1.3,2.49c-1.06,1.57-2.36,2.95-3.89,4.08
					c-2.66,1.95-5.25,4.02-8.05,5.75c-12.64,7.81-22.79,18.2-31.39,30.17c-6.01,8.37-10.6,17.45-12.84,27.59
					c-0.81,3.68-1.54,7.38-1.72,11.16c-0.09,1.78,0.6,3.04,2.38,3.58c0.6,0.18,1.18,0.45,1.79,0.6c8.93,2.29,17.96,2.83,27.08,1.4
					c11.16-1.74,20.95-6.43,29.49-13.79c1.43-1.23,2.88-2.44,4.37-3.58c2.36-1.81,4.76-3.58,7.16-5.34c0.21-0.16,0.65-0.21,0.87-0.1
					c0.51,0.27,0.41,0.78,0.24,1.23c-2.05,5.33-4.86,10.1-9.07,14.11c-10.89,10.36-23.91,15.32-38.77,15.8
					C283.62,462.3,281.27,462.13,278.94,462.07z M396.45,472.49c1.04,0.65,2.13,0.3,3.16,0.34c4.39,0.19,8.8,0.21,13.18,0.55
					c5.53,0.43,10.83,1.82,15.64,4.73c9.37,5.66,12.79,16.67,7.77,26.11c-2.13,3.99-4.64,7.92-7.65,11.27
					c-8.53,9.49-19.39,13.74-32.1,12.42c-11.64-1.21-19.13-8.82-20.25-19.53c-0.13-1.25-0.37-2.49-0.45-3.74
					c-0.11-1.81-1.07-2.89-2.71-3.45c-2.23-0.77-4.45-1.55-6.69-2.27c-4.94-1.57-9.84-3.26-14.58-5.37
					c-1.14-0.51-2.32-1.03-3.32-1.75c-3.98-2.87-4.12-7.18-0.34-10.28c2.48-2.04,5.46-3.1,8.53-3.83c2.75-0.65,5.53-1.34,8.33-1.52
					c4.21-0.28,7.89-1.93,11.61-3.62c1.31-0.6,2.45-1.39,3.41-2.46c3.67-4.1,7.07-8.42,10.13-13c0.26-0.39,0.51-0.8,0.66-1.24
					c0.23-0.68,0.01-1.36-0.7-1.46c-3.17-0.49-6.08-0.43-8.74,2.04c-4.5,4.16-9.51,7.7-14.82,10.81
					c-8.22,4.81-17.15,7.74-26.29,10.13c-1.06,0.28-2.14,0.49-3.18,0.84c-1.14,0.38-1.8,1.21-1.93,2.43
					c-0.23,2.21,0.04,4.37,0.47,6.55c1.17,5.85,2.45,11.69,3.34,17.58c0.78,5.16,1.95,10.2,3.81,15.04
					c1.94,5.02,3.09,10.21,4.07,15.46c0.66,3.55,1.21,7.12,1.85,10.67c1.38,7.63,3.96,14.85,7.63,21.68
					c3.44,6.4,7.94,12.06,12.53,17.65c5.69,6.92,11.6,13.62,18.54,19.36c17.62,14.55,37.29,25.47,58.74,33.17
					c10.24,3.67,20.78,6.06,31.76,6.14c5.81,0.04,11.65,0.48,17.42-0.18c15.76-1.82,30.71-6.56,44.86-13.59
					c14.81-7.36,28.64-16.31,41.23-27.12c10.42-8.95,19.68-18.94,27.53-30.21c7.38-10.59,13.67-21.83,19.32-33.42
					c4-8.21,7.15-16.77,8.87-25.77c1.36-7.09,2.48-14.23,3.59-21.36c0.58-3.72,0.97-7.47,1.33-11.22c0.17-1.72-0.46-2.4-2.13-2.25
					c-2.93,0.26-5.59-0.6-8.24-1.59c-1.17-0.44-2.42-0.84-3.43-1.54c-2.55-1.78-4.53-1-6.74,0.78c-4.15,3.35-8.44,6.55-12.78,9.66
					c-2.91,2.09-4.77,4.52-5.72,8.18c-2.05,7.93-7.38,12.93-15.45,14.86c-3.58,0.86-7.16,0.83-10.75,0.17
					c-3.86-0.71-7.66-1.65-11.6-1.96c-1.86-0.15-3.72-0.67-5.49-1.27c-6.16-2.09-11.21-5.62-14.33-11.51
					c-2.85-5.37-3.03-10.79-0.17-16.23c1.65-3.14,4.13-5.49,7.07-7.41c2.5-1.63,4.92-3.37,7.44-4.96c3.18-2.01,6.42-3.94,9.64-5.89
					c1.1-0.66,2.35-0.81,3.59-1.05c4.05-0.79,8.14-0.45,12.22-0.51c0.58-0.01,1.47,0.48,1.81-0.51c-3.48-1.7-6.87-3.33-10.23-5.03
					c-3.51-1.78-6.88-3.8-10.03-6.16c-1.92-1.44-3.95-1.65-6.23-1.17c-6.45,1.36-12.94,2.52-19.37,3.98
					c-3.19,0.72-6.18,0.56-9.26-0.4c-2.15-0.67-3.69-1.77-3.93-4.12c-0.18-1.7-1.01-2.46-2.7-2.6c-3.22-0.27-4.5-2.45-5.01-5.34
					c-0.4-2.25,0.18-4.38,0.83-6.48c0.52-1.68,1.39-3.15,3.08-3.98c1.45-0.71,2.76-0.25,4.04,0.4c1.02,0.52,1.82,0.18,2.51-0.59
					c2.37-2.68,5.52-4.07,8.75-5.35c3.29-1.3,3.35-1.55,2.06-4.84c-0.12-0.29-0.26-0.57-0.38-0.86c-4.67-11.5-6.81-23.49-6.87-35.87
					c-0.05-9.27,0.45-18.51,1.57-27.73c0.62-5.15,1.04-5.55-4.92-5.7c-7.22-0.18-14.43,0.04-21.65,0.5
					c-8.64,0.54-17.2,1.56-25.62,3.53c-8.28,1.94-16.26,4.81-23.94,8.47c-2.81,1.34-3.04,1.88-2.53,4.78
					c1.1,6.19,1.96,12.41,2.38,18.68c0.73,11.03,0.29,21.97-2.66,32.71c-1.21,4.41-2.77,8.67-4.63,12.83
					c-0.53,1.18-0.3,1.78,0.95,2.13c1.57,0.45,3.07,1.02,3.88,2.45c2.18,3.86,4.13,7.8,2.72,12.48c-0.27,0.89-0.51,1.9-0.34,2.77
					c0.76,3.87-0.94,6.3-3.75,8.89c-2.39,2.2-4.51,2.87-7.55,2.45c-5.6-0.76-11.24-1.14-16.85-1.81c-2.8-0.33-5.19,0.32-7.54,1.89
					c-7.47,5.01-15.57,8.8-23.99,11.92C398.62,471.27,397.28,471.37,396.45,472.49z M591.7,738.43c-1.17-3.14-2.21-5.87-3.17-8.62
					c-0.13-0.36,0.04-0.92,0.26-1.28c0.25-0.42,0.81-0.55,1.25-0.33c3.07,1.55,6.35,2.71,9.05,4.97c2.05,1.71,4.19,3.32,6.32,4.92
					c8.57,6.42,18.02,10.16,28.92,9.46c0.78-0.05,1.57-0.05,2.36-0.05c3.49,0.02,6.87-0.68,10.18-1.73
					c0.67-0.21,1.58-0.23,1.54-1.31c-0.71-0.76-1.68-0.82-2.58-1.07c-11.21-3.14-20.55-9.22-28.21-17.95
					c-2.74-3.13-4.61-6.71-5.82-10.67c-1.63-5.37-1.78-10.82-0.98-16.33c1.07-7.35,3.22-14.4,5.96-21.28
					c5.67-14.27,13.81-27.13,22.79-39.48c1.94-2.67,4.05-5.21,6.14-7.76c0.99-1.21,2.08-2.36,3.52-3.09c2.8-1.43,6,0.06,6.46,3.15
					c0.18,1.21,0.05,2.52-0.22,3.72c-0.58,2.6-1.28,5.19-2.04,7.74c-2.58,8.58-5.78,16.94-8.96,25.32c-3.01,7.93-6,15.87-8.96,23.82
					c-0.21,0.57-0.96,1.33,0.11,1.96c0.39-0.3,0.79-0.54,1.11-0.88c7.52-8.03,14.83-16.25,21.1-25.32
					c8.57-12.41,15.27-25.65,17.12-40.88c0.98-8.12,1.39-16.27,0.38-24.43c-0.5-4.05-1-8.1-1.49-12.16
					c-0.35-2.85-0.16-5.65,0.71-8.39c1.18-3.75,3.68-6.15,7.46-7.17c2.9-0.78,5.88-1.15,8.87-0.7c8.11,1.24,16.29,1.03,24.45,1.3
					c4.58,0.15,9.11-0.4,13.6-1.08c13.1-1.97,25.79-5.48,37.97-10.75c0.62-0.27,1.55-0.19,1.74-1.5c-2.54,0.78-5.05,0.72-7.53,0.99
					c-8.65,0.95-17.25,0.6-25.77-1.19c-5.59-1.17-10.81-3.3-15.65-6.34c-6.5-4.08-11.1-9.67-13.22-17.12
					c-1.25-4.4-0.4-8.41,2.66-11.86c2.01-2.27,4.39-4.07,7.34-4.93c2.11-0.61,4.23-1.23,6.39-1.61c9.22-1.63,17.84-4.95,26.17-9.08
					c12.11-6,22.43-14.4,31.7-24.15c0.47-0.49,1.32-0.92,0.7-2.07c-2.19,0.78-4.39,1.56-6.58,2.35c-7.33,2.63-14.89,4.04-22.66,3.52
					c-5.63-0.38-11.21-1.28-16.7-2.76c-13.23-3.56-23.67-10.66-30.01-23.12c-0.35-0.68-0.83-1.34-1.39-1.86
					c-0.27-0.25-0.88-0.24-1.31-0.17c-0.5,0.08-0.84,0.54-0.76,1.03c0.19,1.24,0.46,2.46,0.73,3.68c1.89,8.53,2.33,17.09,0.56,25.71
					c-2.62,12.76-8.97,23.4-18.61,32.03c-4.84,4.33-10.45,7.42-16.79,9.23c-7.29,2.08-13.97,1.05-20.18-3.24
					c-0.52-0.36-1.01-0.75-1.55-1.08c-1.49-0.9-2.27-0.66-2.92,0.93c-1.54,3.78-2.96,7.61-4.57,11.36
					c-3.6,8.39-8.22,16.25-12.79,24.13c-8.09,13.94-17.86,26.55-29.45,37.8c-9.06,8.79-18.86,16.57-29.43,23.45
					c-12.43,8.08-25.34,15.13-39.36,20.07c-13.27,4.68-26.88,7.68-40.96,8.12c-14.76,0.46-29.06-2.17-43.05-6.79
					c-11.7-3.86-22.63-9.35-33.36-15.29c-17.19-9.51-32.67-21.17-45.45-36.21c-1.53-1.8-2.97-3.66-4.5-5.45
					c-8.12-9.52-14.72-19.95-19.22-31.66c-0.34-0.88-0.74-1.74-1.18-2.56c-0.53-0.98-1.42-1.24-2.36-0.55
					c-2.7,1.97-5.7,3.27-8.81,4.41c-5.46,1.99-11.09,1.9-16.76,1.61c-3.98-0.21-7.72-1.26-11.33-2.91
					c-9.25-4.21-16.04-10.88-20.29-20.12c-6.24-13.53-8.33-27.58-5.12-42.25c1.65-7.55,3.65-14.98,8.54-21.23
					c0.57-0.74,0.46-1.49-0.42-1.95c-0.7-0.36-1.42-0.67-2.17-0.92c-6.14-2.04-11.93-4.84-17.48-8.14
					c-0.66-0.39-1.28-0.95-2.18-0.69c-0.72,0.84-0.33,1.79-0.16,2.68c1.03,5.4,2.08,10.79,3.13,16.19c0.27,1.39,0.85,2.84,0.27,4.17
					c-0.99,2.27-0.85,4.55-0.71,6.91c0.08,1.37-0.27,2.81-0.65,4.16c-0.81,2.88-2.03,5.62-3.53,8.21
					c-3.55,6.16-7.94,11.69-12.82,16.83c-1.62,1.71-3.36,3.29-5.38,4.56c-1.06,0.66-1.98,1.53-2.94,2.34
					c-7.14,5.99-14.66,11.35-23.74,14.07c-0.23,0.07-0.38,0.43-0.83,0.97c8.63,2.1,16.89,1.49,25.06-1.27
					c1.93-0.65,3.79-1.58,5.76-2.03c2.64-0.6,4.59-1.78,5.62-4.39c0.52-1.31,1.4-2.46,2.55-3.34c1.54-1.19,3.39-1.34,4.83-0.41
					c1.47,0.95,1.92,2.58,1.26,4.59c-0.1,0.3-0.23,0.59-0.36,0.87c-4.11,8.67-4.52,17.91-3.87,27.22c0.5,7.2,1.62,14.35,2.92,21.46
					c0.1,0.55-0.09,1.33,0.95,1.41c0.19-0.37,0.48-0.74,0.6-1.16c0.7-2.57,1.41-5.15,2.03-7.74c0.41-1.69,0.8-3.37,1.65-4.89
					c2.29-4.12,6.37-5.19,10.38-2.73c2.05,1.25,3.57,3.05,5.03,4.91c7.76,9.88,15.6,19.69,25.05,28.06c0.35,0.31,0.65,0.7,0.87,1.1
					c1.06,1.97,2.74,3.42,4.18,5.08c1.13,1.31,2.19,2.67,3.22,4.06c1.19,1.61,1.81,3.48,0.81,5.3c-1.19,2.17-0.42,3.92,0.58,5.76
					c0.75,1.38,1.46,2.78,2.21,4.16c6.1,11.2,12.8,22.01,20.97,31.83c12.1,14.53,26.85,25.92,42.91,35.72
					c0.4,0.24,0.82,0.49,1.26,0.64c0.26,0.09,0.66,0.09,0.85-0.06c0.19-0.15,0.37-0.59,0.28-0.79c-0.54-1.3-1.05-2.63-1.75-3.85
					c-2.59-4.49-5.24-8.94-7.88-13.4c-0.8-1.35-1.72-2.64-2.41-4.05c-1.32-2.68-1.02-4.86,0.71-6.49c1.72-1.62,3.94-1.86,6.56-0.56
					c1.26,0.63,2.44,1.43,3.61,2.21c5.88,3.93,11.7,7.93,17.62,11.8c17.8,11.64,36.38,21.79,56.3,29.35
					c16.69,6.33,33.89,10.43,51.77,11.45c2.66,0.15,5.32,0.47,7.98,0.67c1.25,0.09,2.51,0.12,3.76,0.09
					c3.45-0.09,6.91-0.19,10.36-0.35c5.17-0.24,10.34-0.53,15.52-0.8c0.31-0.02,0.63-0.05,0.93-0.13c0.59-0.15,1.34-0.22,1.4-0.96
					c0.03-0.35-0.39-0.82-0.72-1.09c-0.99-0.77-2.06-1.44-3.06-2.2c-2.13-1.61-4.31-3.16-6.35-4.88
					c-7.94-6.7-14.86-14.44-22.02-21.94c-0.86-0.9-1.62-1.94-2.23-3.02c-1.22-2.16-0.96-4.17,0.55-5.62
					c1.6-1.53,4.06-1.76,6.07-0.36c1.14,0.8,2.14,1.84,3.11,2.86c2.91,3.08,5.68,6.31,8.69,9.3c8.06,8.01,16.84,15.11,27.11,20.14
					c3.66,1.79,7.48,3.26,11.28,4.75c2.11,0.83,4.05,1.73,4.98,3.98c0.51,1.22,1.45,2.03,2.59,2.63c3.78,1.97,6.99,4.65,9.9,7.76
					C587.46,736.93,589.33,737.79,591.7,738.43z M315.5,551.99c1.25,0.03,2.52,0.16,3.76,0.07c4.47-0.31,8.62-1.65,12.32-4.19
					c3.38-2.32,4.02-4.07,3.02-8.02c-0.46-1.82-1.02-3.62-1.65-5.39c-3.53-9.94-5.67-20.21-7.51-30.56
					c-1.23-6.93-1.63-14.01-3.71-20.8c-0.83-2.7-0.93-3.03-3.82-3.13c-4.39-0.16-8.78-0.32-13.1-1.2c-2.92-0.59-5.86-1.07-8.78-1.68
					c-1.44-0.3-2.45,0.18-3.17,1.39c-0.4,0.67-0.8,1.35-1.12,2.07c-2.9,6.47-5,13.21-6.08,20.22c-0.41,2.64-0.66,5.29-1.65,7.79
					c-0.6,1.5-0.57,3.08-0.4,4.64c0.19,1.71,0.42,3.43,0.67,5.13c1.02,6.91,3.21,13.46,6.83,19.41
					C296.63,546.81,304.74,551.77,315.5,551.99z M694.14,480.96c0.18-4.18-0.05-8.88-1.19-13.48c-0.77-3.09-1.09-3.72-4.45-3.3
					c-3.73,0.47-7.45,1-11.24,0.91c-6.9-0.18-13.8-0.25-20.6-1.65c-3.07-0.63-3.74-0.05-4.05,3.4c-0.05,0.61,0.09,1.25,0.18,1.87
					c0.44,2.82,0.19,5.63-0.17,8.44c-0.22,1.71-0.6,3.4-0.74,5.12c-0.82,9.54-2.03,19.04-3.97,28.4c-0.81,3.91-0.44,6.73,3.16,8.72
					c4.74,4.97,10.39,5.31,16.46,3.14c4.03-1.44,7.63-3.7,10.78-6.59C688.37,506.66,694.04,495.36,694.14,480.96z M464.98,310.9
					c-0.98,0.06-2.08,0.06-3.17,0.21c-7.39,1.05-11.42,5.45-11.73,12.9c-0.08,1.87-0.02,3.78,0.31,5.61c0.9,5.09,1.91,10.15,3,15.2
					c1.62,7.5,1.04,7.05,7.9,4.27c8.59-3.47,17.33-6.39,26.47-8.04c0.61-0.11,1.23-0.23,1.82-0.43c1.44-0.48,2.02-1.32,1.76-2.88
					c-1.04-6.09-2.89-11.91-6.84-16.78C479.52,314.83,473.11,311.3,464.98,310.9z M525.46,338.14c3.28,0.21,6.56,0.45,9.84,0.64
					c1.68,0.1,2.36-0.38,2.56-2.01c0.47-3.73,0.88-7.46,1.24-11.2c0.26-2.68-0.16-5.32-0.84-7.91c-1.43-5.41-5.16-8.55-10.69-9.03
					c-8.61-0.76-15.64,2.37-21.23,8.84c-4.46,5.16-6.51,11.35-7.43,17.98c-0.11,0.76-0.06,1.57,0.06,2.33
					c0.13,0.86,0.75,1.36,1.62,1.39c0.62,0.02,1.24-0.11,1.87-0.14C510.12,338.68,517.76,337.91,525.46,338.14z M642.48,464.67
					c0.26-4.61,0.24-4.73-3.75-6.35c-9.37-3.82-17.87-9.05-25.47-15.72c-1.18-1.03-2.37-2.05-3.63-2.99
					c-1.39-1.03-2.91-1.01-4.43-0.26c-0.63,0.31-0.91,0.87-0.74,1.55c0.11,0.44,0.34,0.88,0.61,1.25
					c3.94,5.48,8.19,10.69,12.97,15.47c1.18,1.18,2.57,1.65,4.17,1.92c2.83,0.48,5.45,1.45,7.34,3.81c0.81,1.01,1.93,1.54,3.08,2.07
					c2.13,0.98,4.23,2.03,6.33,3.1c2.64,1.34,3.09,1.1,3.4-1.97C642.41,465.93,642.43,465.3,642.48,464.67z M619.82,706.88
					c0.97-2.05,1.71-3.37,2.24-4.78c5.69-15.27,11.34-30.55,16.98-45.84c0.17-0.46,0.72-1.08-0.38-1.57
					c-7.46,11.64-13.81,23.8-17.35,37.27c-0.75,2.87-1.27,5.82-1.76,8.75C619.26,702.48,618.98,704.31,619.82,706.88z M409.9,417.35
					c-1.67,3.13-3.34,6.26-5,9.4c-0.29,0.55-0.54,1.13-0.71,1.72c-0.06,0.21,0.16,0.65,0.35,0.72c0.23,0.08,0.67-0.02,0.84-0.2
					c1.29-1.43,1.74-3.31,2.55-5C408.93,421.93,410.01,419.87,409.9,417.35z M587.69,412.13c-0.24-0.54-0.44-1.08-0.73-1.57
					c-0.13-0.22-0.45-0.32-0.69-0.45c-0.01-0.01-0.23,0.23-0.21,0.33c0.13,0.75,0.38,1.45,1.07,1.87
					C587.21,412.35,587.38,412.23,587.69,412.13z"/>
			</g>
			<g>
				<path d="M485.99,551.57c5.32,0.21,11.72,0.84,18.13,1.31c11.21,0.83,22.46,1.74,33.71,0.28c4.69-0.61,9.16,1,13.74,1.46
					c0.57,0.06,1.16,0.37,1.64,0.7c10.54,7.29,17.11,16.61,16.7,30.14c-0.31,10.1-7.02,21.73-22.87,22.55
					c-4.27,0.22-8.4-0.56-12.42-2.01c-3.8-1.37-7.39-3.16-10.89-5.14c-5.56-3.15-11.12-2.99-16.68-0.03
					c-5.7,3.03-10.95,6.75-16.12,10.59c-6,4.46-12.45,8.11-19.26,11.18c-7.73,3.48-15.79,4.64-24.15,3.58
					c-8.16-1.04-14.75-5.07-20.05-11.23c-2.5-2.9-4.48-6.2-6.08-9.68c-5.88-12.83-3.24-27.79,6.57-38.01
					c6.17-6.42,13.62-10.61,22.21-12.71c8.81-2.16,17.77-3.33,26.87-3.18C479.65,551.4,482.27,551.48,485.99,551.57z M430.52,592.23
					c0.4,6.98,4.07,14.27,11.7,19.22c3.79,2.46,8.12,3.31,12.7,2.84c6.54-0.66,12.47-3.01,18.12-6.21
					c5.61-3.18,10.78-7.02,16.04-10.73c4.44-3.13,8.95-6.15,13.86-8.52c8.55-4.12,17.07-3.99,25.54,0.25
					c2.88,1.44,5.7,2.98,8.62,4.34c3.15,1.46,6.49,2.13,9.98,1.87c5.75-0.42,9.72-4.34,10-10.1c0.33-6.87-2.47-12.51-7.24-17.25
					c-1.16-1.15-2.63-1.91-4.26-2.13c-5.17-0.7-10.33-1.51-15.58-0.57c-1.82,0.33-3.01,1.04-3.17,2.97c-0.3,3.56-2.55,5.82-5.25,7.7
					c-3.31,2.31-6.87,4.16-10.71,5.47c-10.98,3.75-22.13,3.75-33.32,1.33c-9.69-2.1-18.37-6-23.6-15.16
					c-0.83-1.45-2.18-1.67-3.67-1.2c-3.88,1.22-7.42,3.11-10.62,5.6C433.73,576.56,430.73,582.68,430.52,592.23z M512.47,565.62
					c-0.9-1.18-2.21-0.77-3.33-0.88c-3.4-0.32-6.82-0.41-10.2-0.83c-9.2-1.13-18.44-1.12-27.68-1.1c-1.41,0-2.83,0.09-4.08,0.83
					c-0.64,0.38-0.69,1.06-0.22,1.51c0.72,0.67,1.55,1.27,2.42,1.74c8.04,4.25,16.71,5.67,25.66,5.08c5-0.33,9.97-1.33,14.48-3.75
					C510.68,567.59,512.25,567.33,512.47,565.62z"/>
			</g>
			<g>
				<path d="M486.88,541.58c-1.87,0.04-4.49-0.41-6.99-1.41c-5.4-2.14-8.43-7.51-7.32-13.25c1.02-5.22,3.5-9.75,7.42-13.34
					c7.06-6.44,16.71-5.86,22.99,1.31c2.61,2.97,4.54,6.38,5.76,10.16c0.78,2.42,0.66,4.68-1.37,6.46
					c-1.12,0.98-1.76,2.12-2.07,3.56c-0.4,1.85-1.74,2.96-3.42,3.6C497.33,540.41,492.66,541.69,486.88,541.58z M488.82,531.61
					c2.82-0.1,6.27-1.11,9.66-2.32c0.82-0.29,1.31-0.95,0.99-1.83c-0.97-2.69-2.46-5.08-4.63-6.95c-2.26-1.94-4.84-1.93-7.32-0.17
					c-1.57,1.11-2.64,2.64-3.53,4.31C481.6,529.19,482.95,531.52,488.82,531.61z"/>
			</g>
		</g>
	</g>
</g>
</svg>
