<?xml version="1.0" encoding="utf-8"?>
<!-- Generator: Adobe Illustrator 27.0.0, SVG Export Plug-In . SVG Version: 6.00 Build 0)  -->
<svg version="1.1" id="Layer_1" xmlns="http://www.w3.org/2000/svg" xmlns:xlink="http://www.w3.org/1999/xlink" x="0px" y="0px"
	 viewBox="0 0 1000 1000" style="enable-background:new 0 0 1000 1000;" xml:space="preserve">
<style type="text/css">
	.st0{fill:#FFFFFF;}
	.st1{fill:none;}
	.st2{fill:#EDD4BC;}
	.st3{fill:#19100C;}
	.st4{fill:#EC297B;}
	.st5{fill:#F1F1F2;}
	.st6{fill:#F16522;}
</style>
<g>
	<g>
		<g>
			<g>
				<g>
					<path class="st0" d="M785.08,432.77l-0.03,0.13c-1.59,7.19-4.81,13.76-9.58,19.56c-4.8,5.86-10.36,10.72-16.6,14.51
						c0.17,2.32,0.24,4.68,0.21,7.05c-0.02,1.8-0.03,3.65-0.04,5.5c-0.02,2.98-0.03,5.96-0.09,8.94c-0.08,3.49-0.48,6.86-1.19,10.11
						c-1.05,4.87-3.11,9.33-5.99,13.16c0.29,1.23,0.56,2.58,0.78,4.05c1.81,12.19-2.2,23.47-10.53,31.16
						c-0.84,6.55-2.41,12.35-3.83,17.58l-0.88,3.25c-1.26,4.72-2.66,9.98-4.9,15.52c-0.77,8.17-1.77,15.33-3.07,21.92
						c-1.28,6.56-3.63,12.53-6.93,17.75c1.79,8.18,0.58,16.92-3.81,24.87c-3.81,6.91-9.55,12.56-16.61,16.34
						c-6.77,3.66-14.43,5.79-22.71,6.27c-3.5,0.19-6.85,0.19-10.08,0.01c-2.76,5.66-6.03,11.01-9.8,15.98
						c-3.62,4.79-7.96,10.38-13.32,15.59l-0.14,0.13c-2.33,2.24-5.57,5.11-9.87,7.49c-8.71,4.77-18.38,5.75-27.35,2.83
						c-1.88-0.62-3.69-1.39-5.41-2.31c-7.49,5.52-15.37,10.68-23.59,15.45c-21.13,12.25-43.04,20.08-65.13,23.27
						c-6.57,0.95-13.21,1.43-19.89,1.43c-13.03,0-26.22-1.81-39.41-5.4c-11.98-3.25-23.79-7.73-35.07-13.29
						c-6.6-3.25-13.8-6.96-21.15-11.33l-0.03,0.07c-0.12,0.29-0.23,0.59-0.35,0.89c-0.66,1.71-1.66,4.3-3.22,7.12
						c-5.56,10.07-14.94,16.54-25.72,17.79c-10.75,1.23-21.3-2.92-28.94-11.4c-2.77-3.07-5.17-6.47-7.14-10.12
						c-3.03-5.63-6.27-12.19-8.95-19.57c-5.13,0.5-10,0.06-14.74-1.35c-10.74-3.13-19.08-10.72-22.76-20.77
						c-0.03-0.09-0.06-0.17-0.09-0.25c-8.01-4.88-13.73-12.48-15.87-21.38c-1.91-7.96-0.79-16.3,2.96-23.66
						c-3.32-3.88-6.23-8.19-8.71-12.9c-4.64-8.79-7.83-17.83-9.54-27.05c-6-2.09-11.35-5.82-15.54-11.01
						c-8.52-10.58-9.86-24.7-3.59-37.78l0.05-0.12c1.51-3.12,3.2-6.21,5.15-9.42c2.85-4.66,5.44-9.38,7.77-14.13
						c-10.49-2-19.87-7.58-26.89-16.25c-7.09-8.77-10.08-19.29-8.43-29.64c1.66-10.4,7.83-19.53,17.36-25.7l0.12-0.08
						c5.66-3.62,11.33-5.41,15.64-6.56l0.16-0.04c2.86-0.75,5.45-1.7,7.92-2.9c1.66-0.8,3-1.75,4.16-2.97
						c-1.46-3.84-2.24-8.01-2.25-12.37c0-2.07,0.15-4.05,0.46-6.15c3.28-23.27,11.86-45,25.51-64.59c2.7-3.93,5.58-7.82,8.78-11.89
						c8.98-11.37,19.81-20.18,32.39-26.38c-4.16-10.24-6.09-21.73-5.61-34.18c0.2-5.02,1.4-10.02,3.49-14.5
						c4.63-9.99,13.87-16.87,24.76-18.42c10.95-1.55,21.82,2.53,29.05,10.94c2.59,2.99,4.75,6.56,6.43,10.61
						c0.1,0.07,0.23,0.15,0.37,0.25c4.59,2.91,8.34,3.21,13.8,1.1c2.64-1.02,5.2-2.37,7.8-4.12c0.99-0.66,1.96-1.32,2.92-1.98
						c2.62-1.78,5.32-3.62,8.23-5.46c3.41-2.16,6.91-4.02,10.36-5.53c14.95-6.47,31.16-4.67,44.55,4.91l0.17,0.12
						c3.21,2.33,5.75,4.76,7.63,6.63c1.45,1.42,3.05,2.74,4.81,3.95c0.97-0.96,1.92-1.87,2.87-2.73
						c7.7-7.01,16.73-12.78,26.76-17.07c11.19-4.82,23.22-5.85,35.72-3.06c21.18,4.69,40.96,13.87,58.72,27.25
						c3.52,2.65,6.76,4.6,9.89,5.96c2.55-2.28,5.38-4.2,8.47-5.74c14.81-7.47,31.65-4.41,42.82,7.85
						c7.91,8.7,11.45,19.79,10.16,30.91c16.41,6.63,31.65,15.84,45.55,27.56c5.45,4.6,10.65,9.72,15.44,15.23
						c3.07,3.51,7.51,9.15,10.13,17.07c1.16,3.46,1.76,6.99,1.83,10.48c0.4,0.04,0.8,0.08,1.2,0.13c10.45,1.22,19.97,6.76,26,15.19
						C785.14,411.53,787.32,422.35,785.08,432.77z"/>
					<path d="M494.7,753.33c-13.27,0-26.79-1.85-40.2-5.51c-12.16-3.3-24.14-7.85-35.61-13.5c-5.02-2.47-11.46-5.73-18.32-9.67
						c-0.62,1.49-1.43,3.29-2.47,5.17c-6.04,10.92-16.24,17.96-28,19.32c-11.72,1.34-23.21-3.16-31.51-12.37
						c-2.92-3.24-5.46-6.84-7.55-10.7c-2.28-4.23-5.52-10.52-8.34-17.85c-4.68,0.22-9.15-0.32-13.57-1.62
						c-11.44-3.34-20.31-11.3-24.46-21.9c-8.32-5.37-14.1-13.38-16.33-22.68c-1.89-7.9-1.05-16.32,2.35-23.93
						c-2.95-3.66-5.58-7.67-7.83-11.94c-4.48-8.49-7.67-17.3-9.51-26.22c-5.92-2.38-11.16-6.27-15.25-11.35
						c-9.26-11.5-10.74-26.81-3.96-40.96l0.04-0.1c1.57-3.24,3.3-6.4,5.3-9.7c2.1-3.44,4.09-6.96,5.93-10.52
						c-9.73-2.68-18.25-8.3-24.83-16.42c-7.64-9.44-10.85-20.8-9.06-32.01c1.79-11.25,8.43-21.11,18.7-27.75l0.09-0.06
						c6.06-3.88,12.01-5.76,16.52-6.96l0.14-0.04c2.71-0.71,5.12-1.59,7.4-2.7c0.74-0.36,1.4-0.75,1.99-1.18
						c-1.15-3.65-1.75-7.49-1.76-11.45c0-2.18,0.16-4.34,0.5-6.6c3.35-23.73,12.1-45.89,26.02-65.87c2.73-3.96,5.64-7.9,8.88-12.03
						c8.63-10.93,19.04-19.66,30.98-25.97c-3.66-10.05-5.29-21.08-4.83-32.85c0.21-5.41,1.52-10.82,3.77-15.65
						c5.05-10.91,15.17-18.43,27.06-20.12c11.98-1.7,23.85,2.77,31.75,11.95c2.6,3.01,4.81,6.55,6.55,10.54
						c3.57,2.16,6.25,2.29,10.69,0.57c2.44-0.95,4.79-2.19,7.2-3.81c0.98-0.66,1.94-1.31,2.9-1.96c2.69-1.83,5.39-3.67,8.33-5.52
						c3.54-2.24,7.16-4.17,10.77-5.74c15.92-6.89,33.23-4.98,47.49,5.22l0.19,0.14c3.37,2.45,6.03,4.99,7.98,6.92
						c0.76,0.74,1.57,1.46,2.43,2.15c0.38-0.36,0.75-0.7,1.12-1.04c7.97-7.25,17.25-13.18,27.59-17.6
						c11.78-5.07,24.42-6.16,37.56-3.23c21.61,4.79,41.76,14.14,59.87,27.79c2.7,2.03,5.21,3.62,7.61,4.82
						c2.34-1.9,4.9-3.54,7.61-4.9c16.07-8.11,34.28-4.77,46.38,8.52c7.93,8.72,11.83,19.65,11.13,30.99
						c15.89,6.67,30.79,15.81,44.3,27.2c5.57,4.7,10.88,9.93,15.77,15.56c3.26,3.72,7.92,9.66,10.71,18.09
						c0.95,2.85,1.57,5.79,1.84,8.75c10.79,1.61,20.51,7.48,26.78,16.25c6.53,9.12,8.89,20.79,6.48,32.03l-0.03,0.12
						c-1.7,7.69-5.12,14.69-10.2,20.86c-4.59,5.61-9.91,10.38-15.82,14.2c0.09,1.83,0.13,3.67,0.1,5.5
						c-0.02,1.65-0.03,3.35-0.04,5.05l0,0.65c-0.02,2.92-0.03,5.84-0.09,8.76c-0.09,3.68-0.51,7.28-1.26,10.7
						c-1.03,4.79-2.94,9.22-5.7,13.19c0.21,1,0.38,1.98,0.52,2.95c1.87,12.6-2.02,24.58-10.67,33.05
						c-0.89,6.31-2.41,11.92-3.76,16.9l-0.88,3.27c-1.23,4.63-2.62,9.86-4.85,15.45c-0.77,8.04-1.77,15.18-3.08,21.79
						c-1.25,6.43-3.5,12.4-6.7,17.74c1.59,8.65,0.06,17.75-4.36,25.76c-4.09,7.41-10.25,13.47-17.82,17.54
						c-7.19,3.88-15.25,6.12-23.95,6.62c-2.88,0.16-5.71,0.19-8.45,0.1c-2.66,5.2-5.76,10.14-9.22,14.7
						c-3.71,4.91-8.14,10.6-13.62,15.93l-0.15,0.15c-2.45,2.36-5.87,5.39-10.49,7.95c-9.41,5.16-19.96,6.24-29.73,3.05
						c-1.42-0.47-2.83-1.02-4.19-1.66c-7.13,5.17-14.65,10.06-22.38,14.54c-21.46,12.45-43.74,20.4-66.21,23.65
						C508.31,752.84,501.48,753.33,494.7,753.33z M397.6,716.02l3,1.7c7.81,4.63,15.3,8.43,20.95,11.22
						c11.12,5.48,22.73,9.89,34.53,13.09c12.9,3.52,25.89,5.3,38.62,5.3c6.49,0,13.04-0.47,19.46-1.4
						c21.71-3.13,43.26-10.84,64.05-22.9c8.08-4.69,15.92-9.83,23.32-15.27l1.53-1.12l1.67,0.89c1.58,0.84,3.23,1.55,4.93,2.11
						c8.17,2.66,17.04,1.74,24.97-2.61c4-2.21,7.04-4.92,9.23-7.02l0.14-0.13c5.16-5.02,9.42-10.5,13-15.23
						c3.62-4.77,6.81-9.98,9.49-15.48l0.88-1.8l2,0.12c3.12,0.18,6.4,0.18,9.74-0.01c7.81-0.46,15.03-2.45,21.44-5.92
						c6.55-3.52,11.88-8.76,15.41-15.16c3.98-7.21,5.19-15.08,3.51-22.78l-0.26-1.2l0.66-1.04c3.13-4.97,5.33-10.6,6.52-16.73
						c1.29-6.54,2.28-13.61,3.03-21.63l0.04-0.44l0.16-0.41c2.18-5.4,3.56-10.59,4.78-15.17l0.88-3.26
						c1.38-5.1,2.94-10.85,3.75-17.18l0.14-1.08l0.8-0.74c7.73-7.14,11.23-17.53,9.6-28.52c-0.18-1.23-0.42-2.47-0.73-3.8
						l-0.32-1.37l0.84-1.12c2.67-3.55,4.5-7.58,5.45-11.99c0.67-3.06,1.05-6.27,1.12-9.55c0.05-2.88,0.07-5.78,0.09-8.67l0-0.65
						c0.01-1.71,0.02-3.43,0.04-5.09c0.03-2.27-0.04-4.56-0.2-6.8l-0.13-1.83l1.57-0.95c5.95-3.61,11.28-8.27,15.84-13.85
						c4.47-5.43,7.49-11.59,8.97-18.3l0.02-0.12c2.06-9.59,0.06-19.54-5.49-27.29c-5.54-7.74-14.26-12.83-23.91-13.96
						c-0.4-0.05-0.76-0.09-1.14-0.12l-2.66-0.25l-0.05-2.67c-0.07-3.24-0.63-6.47-1.67-9.59c-2.46-7.41-6.62-12.7-9.54-16.04
						c-4.7-5.4-9.78-10.41-15.12-14.91c-13.61-11.47-28.67-20.58-44.74-27.08l-2.12-0.86l0.26-2.27c1.21-10.41-2.13-20.54-9.4-28.54
						c-10.23-11.24-25.64-14.06-39.25-7.19c-2.84,1.42-5.47,3.2-7.82,5.3l-1.43,1.28l-1.76-0.76c-3.35-1.45-6.78-3.52-10.5-6.32
						c-17.42-13.13-36.79-22.12-57.57-26.72c-11.89-2.65-23.29-1.68-33.89,2.88c-9.72,4.16-18.44,9.73-25.93,16.54
						c-0.89,0.81-1.8,1.67-2.78,2.64l-1.76,1.75l-2.05-1.41c-1.88-1.29-3.63-2.73-5.21-4.28c-1.81-1.8-4.25-4.13-7.3-6.35
						l-0.18-0.13c-12.48-8.93-27.65-10.61-41.58-4.58c-3.32,1.45-6.67,3.24-9.95,5.31c-2.85,1.8-5.51,3.61-8.09,5.36
						c-1.02,0.7-2,1.36-2.99,2.03c-2.78,1.87-5.52,3.32-8.39,4.43c-6.33,2.44-11.1,2.05-16.49-1.36c-0.23-0.15-0.39-0.26-0.52-0.35
						l-0.69-0.5l-0.33-0.79c-1.55-3.75-3.55-7.05-5.92-9.79c-6.56-7.63-16.41-11.35-26.36-9.93c-9.87,1.4-18.26,7.65-22.46,16.71
						c-1.92,4.12-3.04,8.74-3.22,13.36c-0.46,11.92,1.35,23,5.39,32.93l1.05,2.59l-2.5,1.23c-12.16,5.99-22.71,14.58-31.36,25.55
						c-3.16,4.02-6,7.86-8.66,11.73c-13.38,19.21-21.8,40.5-25.01,63.3c-0.3,2.01-0.43,3.83-0.43,5.73
						c0.01,3.95,0.71,7.75,2.06,11.3l0.67,1.77l-1.31,1.37c-1.4,1.47-3.05,2.65-5.03,3.6c-2.63,1.28-5.4,2.29-8.46,3.1l-0.13,0.03
						c-4.11,1.1-9.5,2.79-14.82,6.2l-0.07,0.05c-8.84,5.72-14.54,14.12-16.06,23.67c-1.52,9.5,1.25,19.19,7.79,27.29
						c6.52,8.05,15.21,13.3,25.12,15.19l3.86,0.74l-1.73,3.53c-2.38,4.87-5.04,9.7-7.9,14.37c-1.89,3.12-3.54,6.13-5.01,9.17
						l-0.04,0.08c-5.77,12.03-4.56,24.97,3.21,34.62c3.76,4.66,8.67,8.14,14.19,10.06l1.65,0.57l0.32,1.71
						c1.65,8.89,4.76,17.71,9.24,26.19c2.36,4.48,5.16,8.63,8.33,12.35l1.3,1.52l-0.91,1.79c-3.46,6.79-4.43,14.46-2.72,21.6
						c1.94,8.06,7.09,15,14.52,19.52l0.94,0.57l0.35,1.04c0.03,0.08,0.06,0.15,0.08,0.22c3.36,9.12,10.93,16,20.77,18.87
						c4.4,1.3,8.84,1.71,13.61,1.24l2.32-0.23l0.79,2.19c2.85,7.86,6.37,14.71,8.77,19.17c1.86,3.43,4.13,6.65,6.73,9.53
						c6.98,7.75,16.6,11.54,26.37,10.43c9.81-1.13,18.35-7.06,23.43-16.26c1.46-2.66,2.41-5.12,3.04-6.75l0.12-0.3
						c0.08-0.22,0.17-0.44,0.26-0.66L397.6,716.02z"/>
				</g>
			</g>
		</g>
	</g>
	<g>
		<g>
			<g>
				<g>
					<path d="M758.84,427.13c-0.68,3.1-2.09,5.85-4.1,8.29c-4.14,5.06-9.22,8.9-15.27,11.34c-2.9,1.16-5.82,2.11-9.07,1.57
						c-1.92-0.31-2.6,0.72-2.11,2.7c0.91,3.55,1.9,7.07,2.73,10.64c0.9,3.93,1.27,7.94,1.22,11.99c-0.06,4.76-0.04,9.53-0.13,14.3
						c-0.04,1.63-0.22,3.29-0.57,4.89c-0.54,2.49-2.05,4.25-4.52,5.08c-0.52,0.17-1.05,0.26-1.57,0.44
						c-2.27,0.74-2.44,0.89-2.38,2.96c0.13,4.58,0.54,9.14,1.79,13.57c0.44,1.59,0.9,3.2,1.15,4.82c0.65,4.36-0.98,7.57-5.02,9.29
						c-1.68,0.7-2.42,1.59-3.2,3.23c-1.29,2.73-1.92,5.41-2.11,8.39c-0.42,6.45-2.25,12.61-3.92,18.8
						c-1.42,5.3-2.75,10.64-5.02,15.68c-0.76,1.72-0.85,3.53-1.02,5.36c-0.61,6.57-1.44,13.11-2.71,19.58
						c-1.81,9.27-7.2,15.37-16.35,18.03c-0.33,0.11-0.65,0.3-1.02,0.46c-0.18,1.27,0.96,1.27,1.66,1.61
						c2.35,1.05,4.58,2.31,6.39,4.17c2.99,3.08,3.47,6.83,1.4,10.58c-1.37,2.47-3.34,4.34-5.82,5.67c-3.62,1.96-7.5,2.88-11.58,3.12
						c-5.71,0.31-11.34-0.06-16.86-1.68c-2.09-0.61-4.25-1.13-6.41-1.48c-1.7-0.3-2.79,0.41-3.45,2.03
						c-0.5,1.18-0.83,2.42-1.18,3.66c-2.46,8.74-6.28,16.77-11.78,24.03c-3.31,4.38-6.69,8.72-10.64,12.56
						c-1.31,1.26-2.71,2.51-4.28,3.38c-4.28,2.35-8.44,0.9-10.51-3.51c-1.03-2.18-1.48-4.51-1.74-6.89
						c-0.17-1.44,0.07-3.18-1.53-3.86c-1.96-0.85-2.95,0.96-4.1,2.01c-11.93,10.95-24.97,20.37-38.95,28.48
						c-17.29,10.03-35.66,17.07-55.5,19.93c-16.36,2.36-32.49,1.03-48.41-3.31c-10.47-2.84-20.52-6.67-30.25-11.47
						c-12.69-6.26-25.03-13.02-36.18-21.78c-1.85-1.46-3.14-1.31-5.34-0.35c-4.91,2.12-7.79,5.8-10.1,10.31
						c-2.42,4.75-4.36,9.7-6.34,14.61c-0.68,1.7-1.27,3.45-2.16,5.06c-2.71,4.91-7.5,5.52-11.23,1.39
						c-1.33-1.48-2.51-3.16-3.47-4.93c-6.21-11.54-11.14-23.49-11.54-36.86c-0.02-0.72-0.06-1.48-0.26-2.16
						c-0.31-1-1.09-1.53-2.11-1.2c-1.4,0.44-2.73,1.05-4.08,1.61c-5.12,2.05-10.25,3.99-15.7,4.91c-2.03,0.35-3.99,0.42-5.98-0.17
						c-5.32-1.55-7.07-6.08-4.03-10.68c0.98-1.48,2.27-2.77,4.16-5.04h-5.97c-2.97,0-5.85-0.54-8.63-1.51
						c-6.46-2.31-7.9-8.48-3.18-13.48c1.77-1.88,4.01-3.18,6.24-4.43c2.57-1.44,5.13-2.84,7.65-4.34c1.26-0.74,2.46-1.61,3.6-2.51
						c1.2-0.94,1.07-1.94-0.28-2.38c-1.05-0.35-2.12-0.63-3.18-0.94c-11.08-3.36-19.36-10.19-24.73-20.41
						c-6.41-12.13-9.16-25.03-7.44-38.75c0.11-0.89,0.13-1.83,0.04-2.72c-0.07-0.85-0.72-1.31-1.55-1.11c-1.05,0.24-2.07,0.7-3.12,1
						c-2.29,0.65-4.56,1.33-6.89,1.85c-3.45,0.76-6.67,0.18-8.98-2.68c-2.36-2.94-1.77-6.21-0.28-9.33c1.2-2.47,2.53-4.88,3.95-7.22
						c6.04-9.88,11.19-20.17,15.35-30.97c0.46-1.2,0.92-2.4,1.33-3.6c0.31-0.9,0.3-1.87-0.2-2.66c-3.6-5.63-4.06-12.06-4.76-18.43
						c-0.09-0.72-0.24-1.44-0.48-2.11c-0.2-0.57-0.79-0.85-1.35-0.7c-1.03,0.3-2.07,0.66-3.07,1.13c-3.36,1.53-6.83,2.68-10.49,3.12
						c-7.07,0.85-13.06-1.42-17.55-6.96c-4.69-5.8-3.56-11.89,2.66-15.92c2.51-1.61,5.3-2.49,8.13-3.25
						c4.45-1.16,8.74-2.71,12.87-4.73c5.71-2.75,10.51-6.59,14.44-11.58c5.39-6.8,9.46-14.33,12.89-22.26
						c-0.96-1.26-1.59-0.04-2.29,0.17c-4.69,1.42-8.02-1.02-8.03-5.91c0-0.72,0.07-1.46,0.18-2.18c2.71-19.41,9.81-37.1,21-53.15
						c2.49-3.62,5.12-7.15,7.83-10.6c10.8-13.69,24.97-21.78,41.96-25.14c5.39-1.07,10.84-1.7,16.31-2.14
						c0.68-0.04,1.46,0.13,1.98-0.59c-0.46-1.42-1.92-1.51-2.97-2.11c-18.06-10.12-25.54-25.93-24.77-46.14
						c0.06-1.42,0.41-2.94,1.02-4.23c1.66-3.64,6.5-4.32,9.12-1.27c0.94,1.09,1.63,2.46,2.14,3.8c2.07,5.37,5.87,9.2,10.62,12.21
						c12.02,7.61,24.69,8.55,37.84,3.47c4.64-1.79,8.99-4.12,13.11-6.89c3.49-2.35,6.94-4.76,10.51-7.02
						c2.16-1.37,4.43-2.6,6.76-3.62c6.45-2.79,12.54-1.9,18.19,2.14c1.63,1.18,3.1,2.57,4.52,3.99
						c7.72,7.61,16.92,12.69,27.06,16.25c0.68,0.24,1.42,0.35,2.12,0.54c4.93,1.18,5.58,0.9,7.2-3.88c0.85-2.47,2.16-4.64,3.9-6.54
						c1.37-1.5,2.77-2.94,4.27-4.28c5.74-5.23,12.25-9.29,19.36-12.34c6.22-2.68,12.52-3.05,19.3-1.53
						c17.84,3.95,33.89,11.54,48.43,22.5c5.15,3.88,10.6,7.22,16.57,9.66c5.36,2.16,10.82,3.34,16.64,2.18
						c3.55-0.7,6.59-2.11,8.77-5.12c1.2-1.66,2.68-3.01,4.52-3.93c3.99-2.01,7.96-1.4,10.99,1.92c3.34,3.68,4.34,7.98,2.62,12.74
						c-1.31,3.66-3.32,6.91-6.06,9.71c-1.53,1.57-3.07,3.14-4.54,4.77c-0.7,0.79-0.42,1.9,0.54,2.22c1.22,0.42,2.44,0.79,3.69,1.07
						c23.22,4.91,43.86,15.11,62,30.4c4.49,3.79,8.64,7.9,12.5,12.34c2.05,2.35,3.9,4.88,4.89,7.89c1.83,5.49-2.05,10.16-7.72,9.27
						c-1.61-0.26-3.23-0.81-4.67-1.57c-3.08-1.59-6.09-3.34-9.07-5.13c-3.77-2.27-7.46-4.65-11.21-6.93
						c-0.92-0.55-1.99-0.92-3.03-1.2c-0.61-0.17-1.07,0.33-1,0.98c0.06,0.52,0.28,1.05,0.54,1.51c2.64,4.82,5.25,9.66,7.98,14.42
						c5.02,8.79,12.13,15.13,22.02,17.88c7.7,2.14,15.51,2.68,23.29,0.31c2.7-0.81,5.41-1.07,8.14-0.74
						C756.34,415.31,760.2,420.77,758.84,427.13z"/>
				</g>
				<g>
					<path class="st0" d="M494.71,726.68c-10.94,0-22.05-1.52-33.2-4.56c-10.54-2.86-20.91-6.8-30.83-11.69
						c-11.38-5.62-24.64-12.63-36.74-22.13c-0.68-0.54-0.69-0.54-2.08,0.06c-3.62,1.56-6.17,4.2-8.54,8.84
						c-2.15,4.21-3.96,8.72-5.71,13.08l-0.51,1.26c-0.16,0.4-0.32,0.8-0.47,1.21c-0.53,1.38-1.08,2.8-1.86,4.2
						c-1.84,3.33-4.58,5.36-7.72,5.72c-3.1,0.36-6.19-0.97-8.68-3.74c-1.51-1.67-2.82-3.54-3.91-5.55
						c-5.29-9.83-11.4-23.02-11.92-38.04c-0.34,0.14-0.68,0.28-1.04,0.43l-1.01,0.42c-5.12,2.05-10.57,4.12-16.38,5.11
						c-1.78,0.31-4.49,0.62-7.43-0.25c-3.6-1.05-6.18-3.26-7.27-6.23c-1.07-2.92-0.54-6.22,1.49-9.28c0.02-0.03,0.04-0.06,0.06-0.09
						c-2.98-0.09-5.97-0.65-8.9-1.69c-4.11-1.47-6.96-4.37-7.82-7.97c-0.87-3.62,0.37-7.53,3.39-10.72c2.02-2.14,4.36-3.54,7-5.02
						l1.81-1.01c1.91-1.06,3.88-2.16,5.76-3.29c0.11-0.06,0.22-0.13,0.33-0.2c-11.64-3.67-20.41-11.01-26.1-21.81
						c-6.82-12.92-9.46-26.43-7.84-40.15c-0.18,0.06-0.36,0.11-0.54,0.16l-1.3,0.37c-1.86,0.53-3.78,1.08-5.76,1.52
						c-6.39,1.4-10.14-1.29-12.16-3.79c-2.81-3.5-3.04-7.77-0.67-12.71c1.2-2.47,2.54-4.92,4.1-7.5c6.05-9.9,11.13-20.15,15.1-30.46
						c0.45-1.17,0.89-2.32,1.29-3.48c0.01-0.03,0.02-0.06,0.02-0.08c-3.66-5.81-4.34-12.15-5-18.29l-0.07-0.67
						c-0.15,0.06-0.3,0.13-0.45,0.2c-4.04,1.84-7.78,2.95-11.45,3.39c-8.25,0.99-15.31-1.82-20.41-8.12
						c-2.85-3.52-4.04-7.34-3.45-11.04c0.6-3.75,2.97-7.06,6.86-9.58c2.92-1.87,6.07-2.86,9.04-3.65c4.4-1.15,8.42-2.62,12.3-4.51
						c5.33-2.57,9.69-6.06,13.33-10.69c3.77-4.75,7.06-10.08,10.17-16.52c-1.77-0.07-3.39-0.62-4.74-1.61
						c-2.28-1.68-3.54-4.48-3.55-7.87c0-0.83,0.07-1.71,0.22-2.68c2.74-19.59,9.99-37.94,21.54-54.5c2.43-3.52,5.03-7.04,7.94-10.75
						c10.94-13.86,25.69-22.7,43.85-26.3c3.12-0.62,6.41-1.13,10.08-1.55c-15.46-10.38-22.89-25.97-22.1-46.41
						c0.07-1.88,0.54-3.82,1.32-5.47c1.22-2.67,3.7-4.53,6.63-4.94c2.94-0.42,5.86,0.68,7.8,2.95c1.07,1.24,1.95,2.79,2.7,4.74
						c1.64,4.26,4.61,7.65,9.35,10.65c11.03,6.98,22.47,8.02,34.98,3.19c4.26-1.65,8.46-3.85,12.48-6.56
						c1.01-0.68,2.01-1.36,3.02-2.05c2.45-1.67,4.99-3.39,7.57-5.02c2.41-1.52,4.83-2.82,7.19-3.85c7.29-3.15,14.66-2.3,21.33,2.47
						c1.93,1.4,3.57,2.98,4.92,4.33c6.79,6.7,15.26,11.77,25.86,15.5c0.31,0.11,0.64,0.17,0.96,0.25c0.31,0.07,0.61,0.14,0.92,0.22
						c0.43,0.1,1.77,0.42,2.46,0.48c0.18-0.33,0.46-0.99,0.9-2.3c0.97-2.84,2.51-5.41,4.56-7.66c1.62-1.78,3.05-3.21,4.49-4.5
						c5.82-5.3,12.64-9.64,20.24-12.9c6.65-2.86,13.6-3.42,21.26-1.71c17.9,3.96,34.61,11.72,49.65,23.06
						c5.43,4.09,10.61,7.11,15.85,9.25c5.61,2.26,10.32,2.9,14.81,2c3.25-0.64,5.35-1.83,6.81-3.86c1.56-2.16,3.47-3.81,5.68-4.92
						c5.31-2.68,10.84-1.7,14.78,2.63c4.23,4.65,5.36,10.17,3.27,15.98c-1.47,4.1-3.75,7.75-6.78,10.86
						c-0.82,0.84-1.66,1.7-2.49,2.57c0.19,0.05,0.39,0.09,0.58,0.13c23.48,4.97,44.81,15.43,63.37,31.08
						c4.53,3.82,8.85,8.08,12.85,12.68c1.9,2.18,4.26,5.17,5.52,8.98c1.22,3.66,0.6,7.45-1.67,10.13c-2.24,2.65-5.82,3.89-9.57,3.3
						c-1.94-0.31-3.89-0.97-5.67-1.9c-3.39-1.75-6.72-3.71-9.23-5.23c-1.97-1.19-3.92-2.41-5.87-3.62c-0.48-0.3-0.96-0.6-1.44-0.9
						c1.64,2.99,3.31,6.03,5.01,8.99c4.94,8.64,11.51,14,20.1,16.39c7.94,2.21,14.98,2.32,21.5,0.33c3.15-0.95,6.33-1.23,9.46-0.85
						c4.01,0.47,7.43,2.42,9.63,5.48c2.2,3.08,2.94,6.96,2.09,10.94l0,0.01c-0.77,3.51-2.37,6.75-4.76,9.64
						c-4.53,5.54-10.1,9.68-16.54,12.27c-2.56,1.03-5.53,2.07-8.9,1.95c0.2,0.77,0.41,1.55,0.61,2.32c0.6,2.26,1.22,4.61,1.77,6.95
						c0.93,4.02,1.36,8.31,1.3,12.76c-0.02,1.9-0.03,3.8-0.04,5.7c-0.02,2.87-0.03,5.74-0.09,8.61c-0.04,1.9-0.26,3.75-0.65,5.52
						c-0.78,3.61-3.13,6.25-6.63,7.42c-0.34,0.11-0.64,0.19-0.94,0.26c-0.19,0.05-0.39,0.09-0.58,0.16
						c-0.07,0.02-0.16,0.05-0.26,0.08c0.16,5.18,0.67,9.06,1.66,12.57l0.08,0.28c0.44,1.58,0.9,3.21,1.15,4.94
						c0.88,5.92-1.59,10.43-6.94,12.7c-0.78,0.33-1.02,0.52-1.55,1.65c-1.07,2.26-1.64,4.55-1.81,7.22
						c-0.4,6.11-1.98,11.91-3.5,17.52l-0.9,3.36c-1.3,4.87-2.64,9.9-4.81,14.72c-0.46,1.04-0.57,2.32-0.7,3.79l-0.05,0.54
						c-0.69,7.49-1.6,14-2.76,19.91c-1.71,8.78-6.3,15.02-13.66,18.6c1.19,0.76,2.4,1.68,3.51,2.83c3.98,4.1,4.68,9.33,1.91,14.35
						c-1.63,2.95-4.02,5.28-7.1,6.94c-3.82,2.07-8.04,3.21-12.9,3.5c-6.71,0.37-12.57-0.22-17.95-1.81
						c-2.09-0.61-4.1-1.07-5.97-1.38c-0.01,0.02-0.02,0.05-0.03,0.08c-0.39,0.92-0.67,1.91-0.96,2.95l-0.1,0.37
						c-2.62,9.33-6.77,17.77-12.31,25.09c-3.26,4.32-6.8,8.88-10.96,12.92c-1.47,1.41-3.07,2.84-4.97,3.88
						c-2.88,1.58-5.83,1.93-8.56,1.04c-2.72-0.89-4.99-3.02-6.38-5.99c-1.34-2.81-1.78-5.7-2.02-7.9c0-0.04-0.01-0.07-0.01-0.11
						c-0.09,0.09-0.19,0.18-0.28,0.27c-11.74,10.77-25.03,20.49-39.51,28.89c-18.76,10.88-37.29,17.53-56.65,20.33
						C505.77,726.29,500.27,726.68,494.71,726.68z M393.28,681.52c1.44,0,2.97,0.47,4.62,1.77c11.63,9.13,24.53,15.95,35.61,21.42
						c9.55,4.71,19.53,8.5,29.68,11.25c15.96,4.35,31.81,5.44,47.11,3.23c18.53-2.67,36.31-9.06,54.35-19.53
						c14.08-8.17,27-17.61,38.39-28.07c0.17-0.15,0.33-0.33,0.49-0.51c0.93-1,3.4-3.66,7.04-2.08c3.11,1.32,3.3,4.34,3.39,5.79
						c0.01,0.22,0.02,0.43,0.05,0.64c0.28,2.55,0.72,4.36,1.45,5.89c0.46,0.97,1.27,2.21,2.59,2.64c1.28,0.42,2.61-0.08,3.5-0.57
						c1.24-0.69,2.47-1.79,3.61-2.88c3.82-3.71,7.18-8.05,10.3-12.18c5.13-6.77,8.81-14.28,11.26-22.97l0.1-0.37
						c0.34-1.19,0.68-2.42,1.21-3.67c1.24-3.04,3.78-4.48,6.94-3.94c2.11,0.34,4.39,0.87,6.76,1.56c4.68,1.38,9.84,1.89,15.79,1.56
						c3.9-0.23,7.25-1.13,10.24-2.74c2.02-1.09,3.5-2.52,4.54-4.4c1.39-2.52,1.1-4.75-0.9-6.81c-1.26-1.3-2.92-2.37-5.4-3.48
						l-0.19-0.06c-3.48-1.13-3.49-3.82-3.33-4.92l0.25-1.73l1.87-0.85c0.36-0.18,0.7-0.33,1.04-0.45
						c8.01-2.33,12.62-7.43,14.22-15.61c1.12-5.7,2-12,2.67-19.26l0.04-0.51c0.16-1.78,0.33-3.8,1.23-5.84
						c1.97-4.37,3.18-8.93,4.47-13.77l0.91-3.39c1.51-5.55,2.93-10.79,3.29-16.25c0.22-3.49,0.98-6.53,2.41-9.54
						c0.98-2.08,2.19-3.7,4.85-4.82c2.61-1.11,3.54-2.87,3.09-5.87c-0.2-1.34-0.58-2.71-0.99-4.16l-0.08-0.27
						c-1.15-4.07-1.74-8.5-1.91-14.34c-0.1-3.87,1.4-5.05,4.59-6.08c0.3-0.11,0.68-0.21,1.07-0.31c0.17-0.04,0.34-0.08,0.51-0.14
						c1.33-0.45,2.07-1.29,2.38-2.71c0.3-1.38,0.47-2.82,0.5-4.3c0.05-2.83,0.07-5.67,0.09-8.51c0.01-1.92,0.02-3.83,0.04-5.75
						c0.05-3.94-0.33-7.72-1.14-11.23c-0.52-2.24-1.13-4.53-1.72-6.75c-0.34-1.27-0.67-2.54-1-3.81c-0.69-2.73,0.15-4.36,0.97-5.25
						c0.65-0.7,2.13-1.82,4.75-1.39c2.32,0.38,4.53-0.25,7.36-1.38c5.43-2.18,10.14-5.68,13.99-10.4c1.76-2.14,2.89-4.41,3.45-6.95
						c0.47-2.2,0.1-4.28-1.04-5.87c-1.13-1.58-2.97-2.59-5.19-2.85c-2.27-0.28-4.57-0.06-6.85,0.62
						c-7.72,2.35-15.92,2.25-25.07-0.29c-10.15-2.83-18.2-9.35-23.93-19.37c-2.16-3.76-4.27-7.63-6.31-11.36l-1.7-3.11
						c-0.5-0.9-0.82-1.82-0.91-2.71c-0.16-1.37,0.36-2.72,1.38-3.6c0.99-0.85,2.35-1.15,3.63-0.8c1.52,0.41,2.78,0.91,3.83,1.54
						c1.83,1.11,3.63,2.23,5.43,3.36c1.92,1.2,3.84,2.4,5.78,3.57c2.58,1.55,5.65,3.37,8.88,5.03c1.17,0.62,2.48,1.06,3.72,1.26
						c1.53,0.24,2.89-0.17,3.69-1.12c0.83-0.98,1.01-2.44,0.49-3.99c-0.9-2.73-2.76-5.06-4.27-6.79c-3.79-4.36-7.88-8.39-12.16-12
						c-17.75-14.97-38.14-24.96-60.6-29.72c-1.28-0.28-2.61-0.67-4.08-1.18c-1.41-0.46-2.52-1.62-2.92-3.08
						c-0.4-1.49-0.02-3.08,1.04-4.27c1.56-1.71,3.13-3.32,4.65-4.88c2.38-2.44,4.18-5.32,5.34-8.56c1.27-3.54,0.63-6.65-1.98-9.51
						c-2.01-2.2-4.42-2.61-7.19-1.22c-1.31,0.66-2.41,1.62-3.37,2.95c-2.42,3.34-5.93,5.43-10.74,6.38
						c-5.76,1.15-11.63,0.41-18.46-2.35c-5.77-2.36-11.42-5.65-17.29-10.07c-14.31-10.78-30.19-18.16-47.2-21.93
						c-6.39-1.43-11.9-1-17.35,1.35c-6.95,2.98-13.16,6.94-18.47,11.77c-1.29,1.16-2.58,2.46-4.06,4.08
						c-1.48,1.62-2.54,3.4-3.23,5.42c-2.14,6.3-4.4,7.52-10.97,5.95c-0.29-0.08-0.51-0.12-0.73-0.17c-0.51-0.11-1.09-0.24-1.71-0.46
						c-11.51-4.05-20.75-9.6-28.24-16.99c-1.19-1.19-2.61-2.55-4.16-3.68c-4.86-3.48-9.79-4.07-15.04-1.79
						c-2.06,0.9-4.19,2.04-6.32,3.39c-2.49,1.57-4.98,3.27-7.39,4.9c-1.02,0.69-2.03,1.38-3.05,2.06c-4.42,2.97-9.04,5.4-13.74,7.22
						c-14.33,5.53-28.03,4.27-40.7-3.75c-5.87-3.72-9.76-8.23-11.89-13.76c-0.47-1.24-1.01-2.2-1.58-2.86
						c-0.75-0.88-1.7-0.85-2.07-0.8c-0.37,0.05-1.27,0.28-1.73,1.31c-0.43,0.91-0.69,2-0.73,3.03c-0.77,19.93,6.8,34.07,23.14,43.22
						c0.17,0.09,0.35,0.15,0.53,0.23c1.01,0.39,3.12,1.21,3.92,3.68l0.5,1.54l-0.94,1.31c-1.38,1.92-3.39,1.92-4.19,1.92l-0.21,0
						c-6.16,0.5-11.22,1.17-15.86,2.09c-16.86,3.33-29.97,11.18-40.08,23.98c-2.83,3.59-5.35,7.01-7.71,10.43
						c-10.98,15.74-17.86,33.16-20.47,51.78c-0.1,0.68-0.15,1.25-0.15,1.74c0.01,1.31,0.35,2.29,0.96,2.75
						c0.56,0.42,1.53,0.48,2.67,0.19c3.33-2.34,5.62,0.31,6.04,0.87l1.14,1.49l-0.75,1.72c-4.03,9.3-8.26,16.6-13.32,22.97
						c-4.2,5.32-9.43,9.52-15.56,12.47c-4.2,2.04-8.73,3.71-13.45,4.94c-2.84,0.76-5.16,1.54-7.21,2.85
						c-1.61,1.04-3.62,2.8-4.01,5.21c-0.38,2.35,0.94,4.57,2.11,6.01c3.76,4.64,8.56,6.54,14.68,5.8c3.01-0.37,6.13-1.3,9.55-2.86
						c1.07-0.5,2.26-0.93,3.51-1.29c2.25-0.6,4.48,0.57,5.24,2.71c0.29,0.81,0.5,1.72,0.64,2.77l0.15,1.42
						c0.61,5.71,1.19,11.1,4.13,15.7c0.99,1.58,1.18,3.55,0.53,5.43c-0.41,1.21-0.88,2.45-1.36,3.69
						c-4.11,10.69-9.36,21.28-15.61,31.51c-1.45,2.4-2.7,4.67-3.8,6.95c-1.6,3.34-1,4.82-0.11,5.93c0.83,1.03,2.34,2.32,5.8,1.56
						c1.78-0.4,3.53-0.89,5.38-1.42l1.33-0.38c0.39-0.11,0.77-0.25,1.15-0.38c0.63-0.22,1.35-0.48,2.13-0.66
						c1.25-0.31,2.6-0.06,3.63,0.68c1.04,0.74,1.69,1.93,1.81,3.27c0.11,1.04,0.09,2.23-0.05,3.39c-1.57,12.57,0.81,24.97,7.1,36.86
						c4.95,9.41,12.63,15.75,22.83,18.84c0.34,0.1,0.7,0.2,1.06,0.31c0.74,0.21,1.47,0.42,2.2,0.66c1.76,0.58,2.94,1.83,3.22,3.44
						c0.14,0.78,0.21,2.76-1.99,4.49c-1.42,1.12-2.71,2.02-3.95,2.75c-1.95,1.16-3.96,2.28-5.9,3.37l-1.8,1.01
						c-2.25,1.26-4.08,2.35-5.48,3.84c-1.54,1.63-2.18,3.35-1.82,4.85c0.36,1.48,1.69,2.7,3.75,3.44c2.49,0.88,5.03,1.33,7.55,1.33
						h12.77l-4.34,5.24c-0.69,0.83-1.29,1.53-1.84,2.15c-0.93,1.06-1.59,1.83-2.11,2.61c-0.88,1.32-1.17,2.59-0.81,3.55
						c0.37,1.01,1.46,1.82,3.07,2.29c1.29,0.38,2.69,0.41,4.55,0.09c5.2-0.88,10.29-2.82,15.05-4.73l0.93-0.39
						c1.07-0.45,2.18-0.92,3.38-1.3c1.23-0.4,2.54-0.31,3.66,0.26c1.16,0.6,2.03,1.67,2.46,3.03c0.33,1.12,0.38,2.15,0.4,3.04
						c0.42,13.69,5.88,25.6,11.16,35.43c0.83,1.54,1.88,3.03,3.03,4.31c1.07,1.19,2.21,1.78,3.21,1.67
						c1.03-0.12,2.04-0.99,2.85-2.46c0.56-1.02,1.01-2.19,1.49-3.42c0.17-0.43,0.33-0.86,0.51-1.29l0.5-1.26
						c1.8-4.49,3.67-9.14,5.95-13.61c2.06-4.03,5.26-9.01,11.68-11.79C390.56,681.96,391.88,681.52,393.28,681.52z M344.37,674.68
						c-0.01,0-0.01,0-0.02,0.01C344.35,674.68,344.36,674.68,344.37,674.68z M654.1,643.45C654.1,643.45,654.1,643.45,654.1,643.45
						S654.1,643.45,654.1,643.45z M281.08,572.8c-0.01,0-0.02,0.01-0.03,0.01C281.06,572.8,281.07,572.8,281.08,572.8z
						 M278.69,571.13c0,0.01,0,0.02,0,0.04C278.7,571.15,278.69,571.14,278.69,571.13z M273.23,496.62c0,0,0,0.01,0.01,0.01
						C273.24,496.63,273.23,496.63,273.23,496.62z M731.33,449.91L731.33,449.91L731.33,449.91z M291.56,431.49
						c-0.01,0-0.02,0.01-0.03,0.01C291.54,431.5,291.55,431.5,291.56,431.49z M688.07,383.27c0.01,0,0.01,0,0.02,0
						C688.08,383.27,688.07,383.27,688.07,383.27z M642.5,331.01c0.02,0.01,0.04,0.01,0.06,0.02
						C642.53,331.02,642.52,331.01,642.5,331.01z"/>
				</g>
			</g>
		</g>
	</g>
	<g>
		<g>
			<g>
				<path class="st1" d="M338.29,536.61c6.82,3.2,4.29,4.24,5.49,11.69c2.01,12.58,4.25,24.62,7.72,36.94
					c3.36,11.95,4.94,26.87,11.89,37.15c4.11,6.08,3.32,15-1.79,20.27c-18.2,0.5-36.49-6.26-50-18.46s-22.07-29.73-23.41-47.88
					c-0.41-5.62-0.08-11.59,2.89-16.38c1.96-3.16,4.91-5.56,7.81-7.88c6.33-5.07,12.8-10.14,20.29-13.24
					C324.15,536.74,333.01,534.13,338.29,536.61z"/>
			</g>
		</g>
		<g>
			<g>
				<path class="st2" d="M287.16,601.67c-2.39-5.58-3.63-11.6-4.2-17.64c-1.31-13.8,1.29-28.85,11.04-38.7s27.88-11.79,37.02-1.37
					c3.83-34.45,21.87-66.35,46.32-90.92c24.45-24.57,55.02-42.32,86.87-56.01c20.45-8.79,42.14-16.12,64.4-15.66
					c26.07,0.54,50.82,11.75,72.87,25.67c18.83,11.89,36.66,26.28,48.4,45.2c11.74,18.92,16.68,43,8.99,63.9
					c6.39-8.53,17.76-12.94,28.28-11.22c10.52,1.72,19.8,9.39,23.72,19.3c4.24,10.71,2.4,22.83-0.62,33.94
					c-3.55,13.05-9.24,26.41-20.38,34.09s-28.88,6.86-35.9-4.69c-17.11,49.28-52.8,91.87-98.34,117.33
					c-8.92,4.99-18.28,9.37-28.25,11.62c-20.67,4.66-42.16-0.13-62.8-4.92c-25.81-5.98-52.68-12.48-72.98-29.51
					c-11.22-9.41-19.65-21.51-26.7-34.24c-3.18-5.73-5.38-14.47-9.59-19.32c-5.85-6.74-3.91-4.11-12.73-2.06
					C321.22,631.43,296.29,622.98,287.16,601.67z"/>
			</g>
		</g>
		<g>
			<g>
				<path class="st3" d="M517.43,421.45c9.93-3.5,21.71-1.03,29.39,6.16c10.28,9.62,12.18,25.04,18.87,37.43
					c11.68,21.64,40.1,32.52,63.25,24.22c-6.1-6.54-10.25-14.87-11.78-23.68c19.28,22.41,47.46,36.93,76.89,39.63
					c8.56,0.79,18.2,1.04,24.1,7.29c-2.96-11.44,0.54-23.4,2.79-35c2.24-11.6,2.82-24.83-4.69-33.94
					c14.49,2.55,30.11-7.16,34.25-21.28c-16.57,3.44-34.52-0.39-48.24-10.3s-23-25.74-24.94-42.56c8.53,3.45,17.66,5.41,26.86,5.76
					c-16.03-23.67-46.15-32.46-73.84-39.59c8.17-5.44,11.52-17.08,7.49-26.03c-10.35,7.46-23.75,12.3-35.91,8.43
					c-6.32-2.01-11.7-6.17-17-10.16c-10.22-7.7-20.9-15.21-33.11-19.05c-12.21-3.84-26.32-3.54-36.92,3.63
					c-10.01,6.78-17.54,19.57-29.62,19.39c-15.45-0.23-25.04-22.24-40.34-20.08c-4.02,0.57-7.57,2.83-11.1,4.86
					c-23.17,13.33-55.19,17.31-74.91-0.75c2.77,17.47,13.85,33.44,29.24,42.16c-19.02-0.29-38.76,2.99-54.47,13.71
					c-23.51,16.04-33.67,45.13-42.38,72.22c12.06-13.18,24.12-26.36,36.18-39.54c-18.97,40.21-40.94,83.5-81.37,102.01
					c12.5,5.27,27.11,5.32,39.64,0.14c5.79,13.08,4.78,28.37,0.26,41.94c-4.52,13.57-12.29,25.79-19.98,37.85
					c20.23-7.89,37.58-22.95,48.24-41.87c-4.86,13.06-7.05,27.11-6.38,41.03c28.19-11.34,54.76-27.72,75.05-50.33
					c20.3-22.61,33.99-51.8,35.02-82.17c5.27,26.19,7.34,53.02,6.13,79.71c14.67-7.29,24.72-21.81,30.13-37.27
					c5.41-15.46,6.75-32.01,8.05-48.34c7.54,3.92,16.46-0.46,24.42-3.45c17.35-6.51,37.21-6.06,54.25,1.23"/>
			</g>
		</g>
		<g>
			<g>
				<path class="st3" d="M656.35,588.22c-11.13,24.86-25.79,48.13-43.42,68.89c-0.92,1.08-1.88,2.25-2.03,3.66
					c-0.15,1.43,0.57,2.8,1.28,4.06c2.93,5.24,5.86,10.48,8.8,15.72c2.57,0.6,4.79-1.79,6.32-3.94
					c9.27-13.09,17.09-27.22,23.26-42.03c0.54-1.29,1.15-2.69,2.39-3.33c1.22-0.63,2.7-0.34,4.05-0.06
					c12.48,2.58,25.44,2.82,38.01,0.7c-9.2-6.3-17.53-13.88-24.68-22.44c7.15,12.17,32.26-4.29,25.68-13.93
					C693.63,592.03,654.72,591.87,656.35,588.22z"/>
			</g>
		</g>
		<g>
			<g>
				<path class="st3" d="M363.87,716.88c-3.73-16.46-7.45-32.92-11.18-49.38c-0.66-2.89-2-6.42-4.96-6.62
					c-1.6-0.11-3.05,0.87-4.41,1.72c-7.48,4.67-16.69,6.5-25.39,5.06c5.59-5.12,10.05-11.47,12.97-18.47
					c-6.81,3.57-14.63,5.18-22.29,4.6c-1.18-0.09-2.45-0.28-3.27-1.12c-2-2.06,0.38-5.34,2.64-7.13
					c12.95-10.25,26.59-19.64,40.79-28.09c-3.36,2,36.39,44.81,38.3,48.71C393.66,679.62,372.94,705.92,363.87,716.88z"/>
			</g>
		</g>
		<g>
			<g>
				<path class="st4" d="M547.36,621.73c-1.8-2.5-5.67-0.62-8.17,1.19c-6.43,4.66-14.02,7.93-21.95,8.44
					c-15.63,0.99-31.28-8.6-46.36-4.39c-8.52,2.38-15.62,9.34-18.16,17.82c-2.54,8.48-0.45,18.19,5.36,24.87
					c5.35,6.15,13.23,9.49,21.06,11.76c15.02,4.36,30.95,5.53,46.44,3.41c3.74-0.51,7.48-1.22,10.96-2.68
					c9.32-3.91,15.59-12.64,21-21.18c4.7-7.43,9.24-15.42,9.71-24.19c0.46-8.78-4.45-18.45-12.99-20.54
					c-8.4-2.05-16.64,3.57-23.02,9.4"/>
			</g>
		</g>
		<g>
			<g>
				<path class="st5" d="M489.81,647.8c4.57,5.42,10.97,9.68,18.04,10.1c4.07,0.24,8.12-0.79,11.94-2.24
					c3.36-1.28,6.68-2.95,9.07-5.65c5.33-6.02,4.55-15.12,3.45-23.09c-8.12,2.48-16.65,3.61-25.13,3.32
					c-8.64-0.3-18.37-2.76-26.66,0.18C481.46,636.49,485.78,643.03,489.81,647.8z"/>
			</g>
		</g>
		<g>
			<g>
				<path class="st6" d="M591.43,583.03c-12.59,11.48-18.73,28.65-20.46,45.6c-0.86,8.44-0.69,17.29,2.87,24.99
					s11.13,14.02,19.62,14c9.69-0.02,17.46-7.73,23.61-15.21c8.91-10.85,16.92-22.43,23.94-34.58c4.96-8.58,13.18-19.21,9.14-29.49
					C640.71,564.33,606.84,568.97,591.43,583.03z"/>
			</g>
		</g>
		<g>
			<g>
				<path class="st6" d="M415.98,607.93c12.59,11.48,18.73,28.65,20.46,45.6c0.86,8.44,0.69,17.29-2.87,24.99s-11.13,14.02-19.62,14
					c-9.69-0.02-17.46-7.73-23.61-15.21c-8.91-10.85-16.92-22.43-23.94-34.58c-4.96-8.58-13.18-19.21-9.14-29.49
					C366.71,589.24,400.57,593.88,415.98,607.93z"/>
			</g>
		</g>
		<g>
			<g>
				<g>
					<path d="M749.86,414.55c-2.73-0.33-5.45-0.07-8.14,0.74c-7.78,2.36-15.59,1.83-23.29-0.31c-9.88-2.75-16.99-9.09-22.02-17.88
						c-2.73-4.76-5.34-9.6-7.98-14.42c-0.26-0.46-0.48-1-0.54-1.51c-0.07-0.65,0.39-1.15,1-0.98c1.03,0.28,2.11,0.65,3.03,1.2
						c3.75,2.27,7.44,4.65,11.21,6.93c2.97,1.79,5.98,3.55,9.07,5.13c1.44,0.76,3.07,1.31,4.67,1.57c5.67,0.89,9.55-3.79,7.72-9.27
						c-1-3.01-2.84-5.54-4.89-7.89c-3.86-4.43-8.02-8.55-12.5-12.34c-18.14-15.29-38.79-25.49-62-30.4
						c-1.26-0.28-2.47-0.65-3.69-1.07c-0.96-0.31-1.24-1.42-0.54-2.22c1.48-1.63,3.01-3.2,4.54-4.77c2.73-2.81,4.75-6.06,6.06-9.71
						c1.72-4.76,0.72-9.07-2.62-12.74c-3.03-3.32-7-3.93-10.99-1.92c-1.85,0.92-3.32,2.27-4.53,3.93c-2.18,3.01-5.23,4.41-8.77,5.12
						c-5.82,1.16-11.28-0.02-16.64-2.18c-5.97-2.44-11.41-5.78-16.57-9.66c-14.54-10.95-30.58-18.54-48.43-22.5
						c-6.78-1.51-13.08-1.15-19.3,1.53c-7.11,3.05-13.61,7.11-19.36,12.34c-1.5,1.35-2.9,2.79-4.27,4.28
						c-1.74,1.9-3.05,4.06-3.9,6.54c-1.63,4.78-2.27,5.06-7.2,3.88c-0.7-0.18-1.44-0.3-2.12-0.54
						c-10.14-3.56-19.34-8.64-27.06-16.25c-1.42-1.42-2.9-2.81-4.52-3.99c-5.65-4.04-11.75-4.93-18.19-2.14
						c-2.33,1.02-4.6,2.25-6.76,3.62c-3.56,2.25-7.02,4.67-10.51,7.02c-4.12,2.77-8.48,5.1-13.11,6.89
						c-13.15,5.08-25.82,4.14-37.84-3.47c-4.75-3.01-8.55-6.83-10.62-12.21c-0.52-1.35-1.2-2.71-2.14-3.8
						c-2.62-3.05-7.46-2.36-9.12,1.27c-0.61,1.29-0.96,2.81-1.02,4.23c-0.78,20.21,6.7,36.01,24.77,46.14
						c1.05,0.59,2.51,0.68,2.97,2.11c-0.52,0.72-1.29,0.55-1.98,0.59c-5.47,0.44-10.92,1.07-16.31,2.14
						c-16.99,3.36-31.16,11.45-41.96,25.14c-2.71,3.45-5.34,6.98-7.83,10.6c-11.19,16.05-18.28,33.74-21,53.15
						c-0.11,0.72-0.18,1.46-0.18,2.18c0.02,4.89,3.34,7.33,8.03,5.91c0.7-0.2,1.33-1.42,2.29-0.17c-3.44,7.92-7.5,15.46-12.89,22.26
						c-3.93,4.99-8.74,8.83-14.44,11.58c-4.14,2.01-8.42,3.56-12.87,4.73c-2.83,0.76-5.61,1.64-8.13,3.25
						c-6.22,4.03-7.35,10.12-2.66,15.92c4.49,5.54,10.47,7.81,17.55,6.96c3.66-0.44,7.13-1.59,10.49-3.12
						c1-0.46,2.03-0.83,3.07-1.13c0.55-0.15,1.15,0.13,1.35,0.7c0.24,0.67,0.39,1.39,0.48,2.11c0.7,6.37,1.16,12.8,4.77,18.43
						c0.5,0.79,0.52,1.75,0.2,2.66c-0.41,1.2-0.87,2.4-1.33,3.6c-4.16,10.8-9.31,21.09-15.35,30.97c-1.42,2.35-2.75,4.75-3.95,7.22
						c-1.5,3.12-2.09,6.39,0.28,9.33c2.31,2.86,5.52,3.44,8.98,2.68c2.33-0.52,4.6-1.2,6.89-1.85c1.05-0.3,2.07-0.76,3.12-1
						c0.83-0.2,1.48,0.26,1.55,1.11c0.09,0.89,0.07,1.83-0.04,2.72c-1.72,13.72,1.03,26.61,7.44,38.75
						c5.37,10.21,13.65,17.05,24.73,20.41c1.05,0.31,2.12,0.59,3.18,0.94c1.35,0.44,1.48,1.44,0.28,2.38
						c-1.15,0.9-2.35,1.77-3.6,2.51c-2.51,1.5-5.08,2.9-7.65,4.34c-2.23,1.26-4.47,2.55-6.24,4.43c-4.73,5.01-3.29,11.17,3.18,13.48
						c2.77,0.98,5.65,1.51,8.62,1.51h5.97c-1.88,2.27-3.18,3.56-4.16,5.04c-3.05,4.6-1.29,9.12,4.03,10.68
						c1.99,0.59,3.95,0.52,5.98,0.17c5.45-0.92,10.58-2.86,15.7-4.91c1.35-0.55,2.68-1.16,4.08-1.61c1.02-0.33,1.79,0.2,2.11,1.2
						c0.2,0.68,0.24,1.44,0.26,2.16c0.41,13.37,5.34,25.32,11.54,36.86c0.96,1.77,2.14,3.45,3.47,4.93
						c3.73,4.14,8.51,3.53,11.23-1.39c0.89-1.61,1.48-3.36,2.16-5.06c1.98-4.91,3.92-9.86,6.34-14.61
						c2.31-4.51,5.19-8.18,10.1-10.31c2.2-0.96,3.49-1.11,5.34,0.35c11.16,8.75,23.49,15.51,36.18,21.78
						c9.73,4.8,19.78,8.63,30.25,11.47c15.92,4.34,32.04,5.67,48.41,3.31c19.84-2.86,38.21-9.9,55.5-19.93
						c13.98-8.11,27.02-17.53,38.95-28.48c1.14-1.05,2.14-2.86,4.1-2.01c1.61,0.68,1.37,2.42,1.53,3.86
						c0.26,2.38,0.7,4.71,1.74,6.89c2.07,4.41,6.22,5.85,10.51,3.51c1.57-0.87,2.97-2.12,4.28-3.38c3.95-3.84,7.33-8.18,10.64-12.56
						c5.5-7.26,9.33-15.29,11.78-24.03c0.35-1.24,0.68-2.47,1.18-3.66c0.66-1.63,1.75-2.33,3.45-2.03c2.16,0.35,4.32,0.87,6.41,1.48
						c5.52,1.63,11.16,1.99,16.86,1.68c4.08-0.24,7.96-1.16,11.58-3.12c2.47-1.33,4.45-3.2,5.82-5.67c2.07-3.75,1.59-7.5-1.4-10.58
						c-1.81-1.87-4.04-3.12-6.39-4.17c-0.7-0.33-1.85-0.33-1.66-1.61c0.37-0.17,0.68-0.35,1.02-0.46
						c9.14-2.66,14.54-8.75,16.35-18.03c1.27-6.46,2.11-13,2.71-19.58c0.17-1.83,0.26-3.64,1.02-5.36
						c2.27-5.04,3.6-10.38,5.02-15.68c1.66-6.19,3.49-12.36,3.92-18.8c0.18-2.97,0.81-5.65,2.11-8.39c0.78-1.64,1.51-2.53,3.2-3.23
						c4.04-1.72,5.67-4.93,5.02-9.29c-0.24-1.63-0.7-3.23-1.15-4.82c-1.26-4.43-1.66-8.99-1.79-13.57
						c-0.06-2.07,0.11-2.22,2.38-2.96c0.52-0.18,1.05-0.28,1.57-0.44c2.47-0.83,3.99-2.59,4.52-5.08c0.35-1.61,0.54-3.27,0.57-4.89
						c0.09-4.77,0.07-9.53,0.13-14.3c0.06-4.04-0.31-8.05-1.22-11.99c-0.83-3.56-1.83-7.09-2.73-10.64c-0.5-1.98,0.18-3.01,2.11-2.7
						c3.25,0.54,6.17-0.41,9.07-1.57c6.06-2.44,11.14-6.28,15.27-11.34c2.01-2.44,3.42-5.19,4.1-8.29
						C760.2,420.77,756.34,415.31,749.86,414.55z M309.24,610.18c-0.63,2.16-0.65,4.32-0.13,6.5c0.13,0.54,0.04,1.22-0.54,1.35
						c-0.44,0.11-1.13-0.04-1.5-0.33c-2.79-2.12-5.25-4.58-7.06-7.59c-8.88-14.79-10.92-30.49-5.93-47
						c0.85-2.75,2.31-5.32,3.92-8.98c1.13,4.53,0.92,7.65-1.27,10.84c-2.46,3.58-1.61,6.5,2.35,8.59c2.46,1.29,3.42,3.08,3.86,5.54
						c1.55,8.66,3.77,17.16,5.95,25.67C309.35,606.56,309.76,608.33,309.24,610.18z M312.31,537.44c-0.96-0.15-1.5-1.05-1.24-1.99
						c0.7-2.49,2.55-3.86,4.73-4.88c0.94-0.44,2.01-0.7,3.07-0.87c0.55-0.09,1.13,0.41,0.96,1c-0.61,2.29-1.81,4.3-3.42,6.02
						c-0.81,0.85-1.94,0.85-3.03,0.83C313.01,537.52,312.66,537.5,312.31,537.44z M318.2,593.9c-1.48-6.59-2.97-13.19-4.36-19.82
						c-0.7-3.42-0.31-4.03,2.83-5.58c3.27-1.63,6.56-3.23,9.86-4.78c1.72-0.81,2.6-0.55,2.96,1.07c2.33,10.32,6.83,20.08,7.89,30.77
						c0.59,5.82,2.18,11.49,3.79,17.12c0.35,1.24,0.72,2.46,0.94,3.71c0.2,1.22-0.46,2.11-1.46,2.73c-1.11,0.68-2.07,0.39-2.99-0.41
						c-1.5-1.31-1.68-1.87-1.05-3.8c0.35-1.03,0.83-2.03,1.03-3.1c0.42-2.22,0.31-4.49-1.18-6.28c-3.49-4.17-7.74-7.15-13.45-7.31
						c-0.74,0.04-1.48,0.15-2.2,0.07c-0.74-0.07-1.37-0.48-1.64-1.26C318.81,596.01,318.44,594.98,318.2,593.9z M382.62,677.61
						c-6.34,3.47-9.38,9.55-12.5,15.57c-1.02,1.94-1.72,4.04-2.73,5.98c-0.61,1.22-0.63,3.32-2.44,3.2
						c-1.63-0.11-1.88-2.07-2.46-3.36c-3.77-8.59-6.61-17.44-6.46-26.98c0.06-2.38-0.17-4.76-0.85-7.06
						c-1.14-3.84-3.8-5.6-7.85-5.36c-1.87,0.11-3.56,0.79-5.25,1.5c-2.88,1.18-5.73,2.42-8.61,3.6c-0.28,0.13-0.78,0.09-1-0.09
						c-0.52-0.42-0.26-0.98,0.09-1.39c1.53-1.83,3.08-3.62,4.6-5.45c0.7-0.83,1.4-1.7,1.99-2.6c1.2-1.85,1.39-3.8,0.17-5.69
						c-1.18-1.85-3.05-2.75-5.17-2.38c-1.96,0.33-3.88,1.02-5.76,1.72c-4.64,1.75-9.33,3.25-14.35,3.23c-0.7-0.02-1.4-0.13-2.07-0.2
						c-0.2-1.18,0.63-1.4,1.24-1.74c5.15-2.79,10.03-6.04,14.44-9.92c2.12-1.87,4.38-2.31,7.07-1.94
						c5.43,0.74,10.88,1.44,16.33,1.92c3.03,0.26,5.23,1.55,6.76,4.04c3.9,6.43,8.59,12.28,13.5,17.95
						c2.75,3.18,5.67,6.21,8.48,9.33c1.11,1.22,2.2,2.46,3.2,3.77C383.62,676.07,383.6,677.07,382.62,677.61z M398.26,531.59
						c14.26,0.65,28.52,1.31,42.63,3.82c5.73,1.02,11.58,1.72,17.47,1.39c2.51-0.15,2.99,0.17,3.29,2.6
						c1.02,8.51,3.68,16.83,2.97,25.56c-0.46,5.69,0.57,11.32,1.44,16.94c0.61,4.01,0.79,8.02,0.63,12.04
						c-0.22,4.93-0.55,9.86-1.03,14.79c-0.2,1.98-0.76,3.95-1.42,5.84c-1.59,4.49-4.54,7.35-9.51,7.98
						c-6.72,0.87-13.41,1.9-20.09,2.97c-9.4,1.5-18.89,2.47-28.37,2.97c-9.7,0.52-19.34,1.83-29.07,1.68c-3.1,0-6.22,0.04-9.33,0
						c-5.13-0.09-5.73-0.52-7.42-5.52c-0.7-2.09-1.33-4.21-1.77-6.35c-3.97-18.99-8-37.97-11.75-57.01c-1.96-9.9-3.1-7.39,4.88-13.5
						c6.09-4.69,11.91-9.73,17.44-15.09c2.81-2.71,5.54-3.36,9.36-2.84C385.1,530.72,391.67,531.28,398.26,531.59z M391.15,508.58
						c0.39-1.02,0.9-1.99,1.5-2.9c7.78-11.62,14.06-24.01,19.49-36.86c0.48-1.14,0.66-2.51,2.86-3.56
						c0.54,12.52,0.68,24.4-0.31,36.26c-0.07,0.9-0.37,1.79-0.63,2.68c-0.41,1.35-1.33,2.16-2.72,2.42
						c-5.93,1.13-11.86,2.25-17.8,3.36c-0.52,0.09-1.11,0.02-1.63-0.15C391.34,509.67,390.95,509.09,391.15,508.58z M466.82,434.22
						c3.38-1.83,6.46-4.16,9.71-6.19c4.69-2.97,9.9-4.65,15.27-5.91c2.99-0.7,5.76-0.54,8.48,1.03c2.81,1.63,6.04,2.48,8.2,5.25
						c1.5,1.9,3.75,2.25,5.95,0.85c3.8-2.42,8-2.42,12.21-1.88c4.93,0.61,9.7,1.87,14.09,4.3c1.92,1.05,3.99,1.81,6,2.7
						c3.42,1.5,5.54,3.77,5.93,7.78c0.44,4.56,1.94,8.92,3.45,13.24c5.54,15.83,16.18,26.71,31.73,32.84
						c1.2,0.46,2.38,0.92,3.53,1.48c0.22,0.11,0.28,0.59,0.39,0.89c-0.26,0.24-0.48,0.57-0.78,0.66c-1.59,0.44-3.18,0.87-4.8,1.18
						c-4.65,0.94-9.33,1.83-13.98,2.75c-5.58,1.09-11.17,1.81-16.88,1.88c-4.38,0.04-8.75,0.57-13.11,1.11
						c-3.14,0.37-5.87,1.99-8.53,3.6c-1.63,0.98-2.7,2.51-2.99,4.41c-0.33,2.22-1.35,4.16-2.22,6.17
						c-1.77,4.04-2.71,8.33-3.42,12.69c-1.2,7.39-2.38,14.79-3.62,22.2c-0.15,0.89-0.42,1.77-0.72,2.64
						c-0.28,0.78-0.94,1.16-1.72,1.02c-1.07-0.2-2.12-0.52-3.16-0.89c-9.9-3.62-19.74-3.16-29.57,0.31
						c-1.88,0.66-3.75,1.42-5.63,2.12c-3.62,1.35-4.45,1-5.28-2.84c-1.03-4.84-1.74-9.73-1.66-14.7c0.06-4.21-0.22-8.4-0.79-12.6
						c-0.37-2.79-1.26-5.3-2.97-7.55c-0.89-1.16-1.55-2.48-2.46-3.62c-1.13-1.44-2.14-3.32-3.66-4.03
						c-3.42-1.55-5.91-4.08-8.63-6.46c-1.05-0.92-2.55-1.48-3.93-1.87c-3.1-0.85-3.29-1.72-1.48-4.64
						c6.89-11.1,10.44-23.33,11.97-36.18c0.76-6.35,1.4-12.73,1.96-19.1C463.9,436.64,464.79,435.31,466.82,434.22z M466.32,420.07
						c0-0.18-0.02-0.37,0.02-0.54c0.87-4.36,2.46-8.44,5.5-11.71c3.08-3.34,6.87-4.56,11.38-2.84c3.95,1.51,6.78,3.36,9.57,6.69
						c-0.94,1.03-2.33,0.89-3.51,1.15c-6.45,1.42-12.52,3.77-18.21,7.13c-0.94,0.55-1.92,1.05-2.92,1.5
						C467.28,421.83,466.3,421.05,466.32,420.07z M522.19,415.73c0.28-0.66,0.72-1.26,1.15-1.87c2.53-3.6,5.61-6.72,8.98-9.53
						c1.24-1.05,2.64-1.98,4.1-2.66c3.36-1.61,6.39-0.83,8.77,2.09c1.16,1.44,1.96,3.1,2.51,4.84c1.5,4.73,2.03,9.62,2.44,14.52
						c0.04,0.31-0.26,0.65-0.42,0.98c-1.22,0.41-2.07-0.48-3.01-0.94c-6.82-3.31-13.89-5.5-21.55-5.5c-0.72,0-1.46-0.06-2.16-0.22
						C522.14,417.21,521.88,416.49,522.19,415.73z M636.83,507.82c4.75-0.28,9.51-0.3,14.26-0.26c2.86,0.02,3.62,0.81,3.66,3.64
						c0.04,3.1-0.13,6.22-0.31,9.33c-0.18,3.1-0.54,6.19-0.78,9.29c-0.33,4.19-1.03,8.35,0,12.56c0.3,1.2,0.06,2.55-0.09,3.82
						c-1.16,11.1-2.35,22.22-4.52,33.19c-1.64,8.29-4.58,16.18-7.85,23.97c-0.98,2.29-2.48,3.56-5.04,3.4c-0.18-0.02-0.37,0-0.55,0
						c-18.49-0.07-36.94,1.96-55.44,1.66c-8.98-0.18-17.95-0.35-26.91-0.52c-4.25-0.07-8.4-0.74-12.49-1.77
						c-5.36-1.35-6.67-3.9-5.8-9.27c0.7-4.32,1.11-8.7,1.37-13.08c0.24-4.03,0.15-8.07,0.15-12.1c0.02-13,0.87-25.97,1.92-38.93
						c0.18-2.36,0.22-4.77,0.42-7.13c0.13-1.77,0.96-2.07,2.53-0.94c1.35,0.96,2.64,1.98,4.01,2.92c4.4,3.01,9.12,3.58,14.11,1.74
						c1.55-0.57,3.07-1.22,4.54-1.96c12.13-6.04,24.25-12.1,36.35-18.19c2.18-1.11,4.38-1.83,6.83-1.74
						c3.84,0.17,7.68,0.2,11.52,0.39C624.75,508.15,630.77,508.15,636.83,507.82z M632.45,488.19c4.62,2.88,8.4,5.26,12.78,8
						c-2.14,1.11-3.45,0.79-4.71,0.89c-2.9,0.24-4.91-0.54-5.45-3.9C634.84,491.71,633.65,490.4,632.45,488.19z M656.39,593.04
						c0.5-1.31,1.46-1.7,2.59-1c2.94,1.81,5.98,3.38,9.84,4.62c-3.18,1.75-3.99,4.25-4.38,7.07c-0.33,2.4-0.96,2.9-3.14,2.96
						c-2.36,0.06-4.75,0-7.11-0.15c-1.51-0.09-2.27-1.26-1.75-2.71C653.67,600.2,655.02,596.6,656.39,593.04z M478.25,594.55
						c0.63-7.76-0.61-15.55-1.51-23.36c-0.09-0.92-0.28-1.81-0.35-2.73c-0.11-1.59,0.41-2.9,1.98-3.56
						c5.04-2.12,9.79-4.99,15.2-6.24c8.18-1.92,15.96-1.27,23.36,2.95c2.47,1.4,4.01,3.07,3.75,6.06c-0.11,1.09,0.02,2.2,0.02,3.31
						c-0.02,9.9,1.13,19.72,2.27,29.55c0.74,6.37,4.21,10.77,10.05,13.37c1.13,0.5,2.9,0.61,3.03,1.96
						c0.18,1.81-1.88,1.94-3.05,2.68c-2.77,1.77-5.67,3.34-8.48,5.08c-4.03,2.51-8.39,3.56-13.09,3.36
						c-3.1-0.15-6.19-0.44-9.25-1.09c-8.05-1.7-15.99-3.92-24.19-4.93c-2.22-0.28-2.94-1.29-2.22-3.42
						C478.29,610.1,478.37,602.42,478.25,594.55z M531.17,638.12c-2.42,6.96-7.57,10.49-14.61,11.56
						c-5.84,0.87-11.25-0.61-16.36-3.31c-5.71-3.01-10.62-7.04-14.78-11.99c-0.2-0.24-0.18-0.66-0.28-1.02
						c0.79-0.83,1.66-0.28,2.51-0.11c6.61,1.29,13.13,3.01,19.82,4.01c6.37,0.96,12.34-0.09,18.14-2.62
						c1.16-0.5,2.33-1.05,3.53-1.46c1-0.33,2.2,0.63,2.4,1.72C531.74,636.03,531.54,637.09,531.17,638.12z M479.84,643.07
						c6.13,7.06,13.63,12.13,22.42,15.31c7.52,2.71,15.02,2.51,22.55-0.2c9.97-3.58,14.92-11.27,17.64-20.89
						c0.46-1.66,0.2-3.27-0.57-4.78c-0.5-0.98-1.11-1.9-1.51-2.92c-0.5-1.29-0.04-2.57,1.05-3.4c5.36-4.12,12.45-3.1,16.38,2.31
						c4.23,5.82,4.54,12.23,2.71,18.86c-1.22,4.47-3.55,8.44-6.3,12.12c-2.64,3.51-5.47,6.87-8.53,10.03
						c-7.89,8.2-17.84,11.88-28.83,13.15c-3.44,0.41-6.94,0.07-10.43,0.07c-7.72,0.42-15.35-0.18-22.81-2.33
						c-8.26-2.38-15.72-6.21-21.33-12.84c-6.7-7.96-8.85-17.16-5.8-27.21c1.55-5.13,5.17-8.29,10.71-8.94
						c2.4-0.28,4.27,0.41,5.56,2.59C474.71,637.33,477.33,640.17,479.84,643.07z M346.35,628.55c0.18,0.24,0.39,0.46,0.57,0.7
						c-0.24,0.17-0.5,0.46-0.74,0.48c-0.5,0.02-1.09-0.13-0.7-0.83C345.59,628.68,346.05,628.66,346.35,628.55z M599.37,665.1
						c-7.24,7.06-15.16,13.26-23.47,18.97c-12.26,8.42-25.08,15.79-39.12,20.96c-8.96,3.31-18.12,6.08-27.61,6.98
						c-13.87,1.33-27.8,1.37-41.44-2.29c-5.32-1.42-10.44-3.36-15.64-5.08c-10.88-3.56-20.85-8.9-30.79-14.41
						c-16.36-9.05-30.47-20.85-42.5-35.17c-2.59-3.08-5.04-6.28-7.52-9.47c-0.78-1-1.44-2.11-1.99-3.25
						c-0.33-0.7-0.11-1.53,0.78-1.72c1.05-0.22,2.16-0.3,3.25-0.33c10.43-0.26,20.83-1.05,31.23-1.9
						c5.47-0.44,10.95-0.55,16.42-1.16c7.46-0.83,14.89-1.92,22.31-2.99c0.89-0.13,1.81-0.24,2.71-0.22c0.57,0,1.03,0.44,0.96,1.07
						c-0.07,0.72-0.3,1.42-0.48,2.12c-4.1,15.05-0.83,28.22,10.1,39.39c8.4,8.59,18.95,13.04,30.49,15.22
						c8.81,1.66,17.77,2.79,26.74,2.2c14.07-0.92,26.84-5.49,37.33-15.31c0.66-0.63,1.39-1.24,1.9-1.98
						c4.23-5.97,9.16-11.43,12.89-17.77c2.05-3.49,3.62-7.18,4.67-11.1c2.31-8.42,0.94-16.33-3.47-23.77
						c-0.74-1.26-1.68-2.38-2.47-3.62c-0.83-1.26-0.42-2.12,1.02-2.22c1.11-0.06,2.2-0.02,3.31-0.02h10.97
						c0.02,0.09,0.02,0.18,0.02,0.28c14.81-0.72,29.61-1.44,44.42-2.12c2.55-0.11,5.12-0.15,7.68-0.13c1.7,0.04,2.2,0.98,1.37,2.6
						c-1,1.96-2.16,3.84-3.2,5.78C622.11,639.78,611.66,653.14,599.37,665.1z M684.52,630.95c-0.13,0.46-0.61,0.89-1.03,1.2
						c-0.42,0.31-0.94,0.59-1.48,0.7c-2.51,0.46-5.04,0.85-7.5,1.26c-3.69-0.57-7.37-0.7-10.9-1.79c-2.09-0.65-4.23-1.15-6.33-1.77
						c-1.96-0.57-3.95-0.7-5.98-0.63c-3.79,0.13-6.61,1.85-8.5,5.13c-1.29,2.25-2.01,4.71-2.66,7.18
						c-2.77,10.68-8.18,19.91-15.31,28.22c-0.59,0.68-1.22,1.37-1.92,1.94c-0.66,0.54-1.5,0.44-1.74-0.42
						c-0.85-3.03-1.85-5.93-4.36-8.07c-0.65-0.55-0.46-1.37-0.04-1.99c0.52-0.76,1.13-1.46,1.72-2.14
						c8.48-9.46,15.29-20.08,21.44-31.12c1.79-3.2,3.58-6.37,5.28-9.62c1.05-2.01,2.59-2.94,4.84-2.9
						c4.58,0.07,9.14,0.09,13.72,0.11c2.12,0.02,3.93,0.66,5.3,2.38c3.73,4.69,8.38,8.11,13.93,10.38c0.17,0.06,0.31,0.17,0.48,0.26
						C684.17,629.62,684.72,630.16,684.52,630.95z M690.85,594.48c-0.59,3.79-1.51,7.52-3.14,10.99c-1.22,2.59-2.83,3.34-5.78,3.07
						c-0.17-0.02-0.35-0.07-0.54-0.09c-6.59-1.2-7.28,0.5-7.92-7.57c-0.07-0.87-0.42-1.74-0.78-3.16
						c5.97-1.16,11.25-2.49,16.18-4.93C690,592.22,691.07,593.15,690.85,594.48z M698.48,525c-0.83,4.89-0.61,9.84-0.87,14.76
						c-0.31,6.39-0.81,12.78-1.29,19.17c-0.15,2.2-0.72,4.32-1.88,6.24c-0.74,1.22-1.92,1.57-2.6,0.52
						c-2.44-3.75-6.83-4.8-10.07-7.44c-1.79-1.46-4.19-1.13-6.3-0.2c-5.23,2.31-8.61,6.28-9.46,11.95
						c-1.37,8.99,8.2,16.25,14.76,13.48c0.98-0.41,2.07-0.54,3.12-0.79c-2.46,2.68-5.67,3.4-8.87,4.04
						c-2.25,0.46-4.38-0.28-6.41-1.13c-3.25-1.39-5.52-4.16-8.33-6.13c-0.7-2.6,0.3-5.08,0.7-7.55c1.4-8.68,2.2-17.42,2.92-26.17
						c0.2-2.46,0.72-4.41,2.79-6.19c3.2-2.75,3.14-5.47-0.15-8.29c-2.03-1.74-2.05-3.45-1.96-5.78c0.15-4.19,1.7-7.87,3.58-11.38
						c2.14-4.03,5.5-6.28,10.32-5.71c3.99,0.48,8,0.85,11.99,1.35c5.01,0.61,8.22,4.21,8.26,9.22
						C698.76,520.97,698.83,523.02,698.48,525z M745.54,428.9c-2.27,2.68-4.88,4.97-8.07,6.5c-4.36,2.07-8.96,3.12-13.78,3.34
						c-1.92,0.07-3.6-0.35-5.15-1.5c-1.63-1.2-3.29-2.35-4.97-3.44c-1.57-0.98-3.23-1.72-5.13-1.81c-2.47-0.13-4.27,0.76-4.99,2.59
						c-0.76,1.94-0.11,3.58,1.22,5.02c0.5,0.54,1.05,1.03,1.66,1.44c8.44,5.52,12.37,13.7,13.74,23.38
						c0.07,0.54,0.24,1.07,0.31,1.61c0.35,2.23-0.46,2.75-2.23,2.66c-5.25-0.28-7.04,1.27-7.63,6.26c-0.07,0.54-0.18,1.09-0.13,1.63
						c0.66,8.03,0.07,16.12,1.11,24.14c0.46,3.6,0.57,7.24,0.85,10.97c-1.33-0.41-0.92-1.44-1-2.2c-0.15-1.27-0.09-2.57-0.31-3.82
						c-0.59-3.18-1.33-3.93-4.56-4.49c-2.92-0.5-5.67-1.37-8.18-2.99c-1.07-0.72-2.29-1.33-3.6-1.11c-2.99,0.54-5.82-0.2-8.7-0.76
						c-1.63-0.3-3.31-0.41-4.89,0.02c-4.86,1.31-9.4,0.13-13.96-1.48c-12.58-4.45-23.88-11.1-34.26-19.39
						c-1.42-1.15-2.84-2.31-4.23-3.51c-7.46-6.39-13.74-13.56-17.14-23.09c-2.53-7.06-5.76-13.87-8.7-20.76
						c-1.16-2.71-2.33-5.43-4.51-7.48c-1.03-0.98-2.18-2.33-3.73-1.96c-1.92,0.46-2.03,2.42-2.35,3.97
						c-0.35,1.83-0.15,3.66,0.39,5.45c1.74,5.78,3.36,11.6,5.28,17.32c1.59,4.69,3.66,9.2,6.35,13.37c2.09,3.25,3.77,6.7,5.39,10.18
						c2.11,4.49,4.52,8.79,6.74,13.21c0.78,1.53-0.02,2.72-1.61,2.44c-10.14-1.72-20.19-3.79-29.31-8.83
						c-9.38-5.19-15.66-13.04-19.36-23.03c-3.07-8.31-4.56-16.95-5.47-25.73c-0.66-6.37-1.29-12.76-3.1-18.95
						c-0.55-1.92-1.24-3.82-2.01-5.67c-4.43-10.45-16.66-14.79-26.89-6.93c-5.45,4.16-10.01,9.09-13.94,14.66
						c-0.42,0.59-0.79,1.24-1.2,1.85c-2.46,3.75-2.51,3.75-5.32,0.54c-4.84-5.54-10.01-10.69-16.42-14.48
						c-3.69-2.18-7.61-3.55-11.93-3.69c-4.99-0.15-9.38,1.35-13.17,4.56c-4.16,3.53-7.04,7.9-8.9,13
						c-2.59,7.15-3.42,14.59-4.16,22.07c-1.13,11.47-1.68,22.99-4.32,34.3c-2.81,12.04-8.66,22.46-16.51,31.9
						c-1.33,1.61-2.9,2.81-5.04,2.96c-1,0.07-1.83-0.41-2.07-1.42c-0.2-0.89-0.3-1.81-0.26-2.71c0.18-4.21,0.42-8.42,0.63-12.61
						c0.09-2.2,0.37-4.41,0.22-6.59c-0.78-11.49-1.39-23.01-3.38-34.41c-0.37-2.16-0.54-4.36-0.98-6.52
						c-0.33-1.59-0.78-3.21-1.46-4.67c-0.87-1.79-2.55-2.68-4.49-2.66c-1.98,0.02-3.55,1.02-4.36,2.84
						c-0.52,1.16-0.83,2.42-1.07,3.68c-4.38,22.88-14.57,43.27-27.06,62.63c-2.38,3.68-5.32,7-8.03,10.45
						c-1.61,2.05-3.62,3.6-6.17,4.38c-1.05,0.31-2.07,0.76-3.05,1.26c-2.25,1.15-3.88,2.86-3.9,5.54c0,2.22-0.98,3.79-2.6,5.17
						c-2.94,2.49-5.76,5.1-8.66,7.61c-4.99,4.34-10.68,7.66-16.2,11.23c-3.53,2.29-7.37,4.04-10.71,6.69
						c-1.55,1.22-3.55,1.87-5.37,2.71c-0.22,0.11-0.76-0.09-0.9-0.31c-0.15-0.24-0.11-0.72,0.04-1c0.31-0.65,0.72-1.27,1.15-1.87
						c9.2-12.97,15.92-27.09,20.61-42.29c1.44-4.64,1.63-9.31,1.9-14.04c0.04-0.78-0.33-1.42-1.07-1.77
						c-0.78-0.37-1.48-0.02-1.96,0.52c-2.81,3.16-5.67,6.24-7.2,10.29c-1.05,2.73-2.2,5.45-3.31,8.15c-0.74,1.79-1.88,3.29-3.9,3.53
						c-6.89,0.81-12,5.12-17.49,8.72c-0.31,0.2-0.59,0.46-0.92,0.61c-4.78,2.18-7.26,5.8-7.15,11.16c0.04,1.96-0.9,3.53-2.53,4.62
						c-3.42,2.29-6.09,5.26-8.09,8.83c-0.83,1.48-1.98,2.64-3.44,3.47c-2.38,1.37-4.76,2.71-7.18,4.04c-0.46,0.26-1,0.41-1.61-0.09
						c0.07-1.64,1.24-2.9,2.03-4.27c5.21-8.87,9.4-18.21,13.21-27.74c4.23-10.64,6.65-21.7,7.85-33.04c0.31-2.9,0.44-5.85-0.72-8.66
						c-0.81-2.01-2.44-2.35-3.68-0.63c-1.5,2.09-2.83,4.28-4.23,6.41c-0.39,0.59-0.63,1.33-1.79,1.61c-0.3-1.72-0.54-3.44-0.92-5.13
						c-1.35-5.93-5.49-8.18-11.06-5.93c-1.87,0.74-3.6,1.81-5.34,2.84c-3.01,1.79-6.22,3.1-9.62,3.95c-2.33,0.57-4.71,0.68-6.83-0.9
						c-0.61-0.44-0.63-1.55,0.07-1.85c1.53-0.61,3.07-1.18,4.64-1.66c5.08-1.57,10.05-3.44,14.78-5.89
						c6.45-3.32,11.88-7.85,16.42-13.5c4.73-5.89,8.57-12.34,11.86-19.1c3.29-6.76,6.17-13.69,8.83-20.72
						c2.35-6.17,4.91-12.23,7.46-18.3c2.16-5.1,4.88-9.83,9.12-13.56c2.05-1.81,3.88-3.92,5.02-6.46c1.14-2.51,0.79-4.91-0.89-6.63
						c-1.77-1.81-4.06-2.23-6.56-1.2c-2.46,1.03-4.23,2.88-5.78,4.95c-3.62,4.86-7.66,9.35-12.1,13.45
						c-0.63,0.57-1.07,1.51-2.16,1.37c-0.44-1.22,0.42-2.09,0.87-2.99c4.58-9.23,10.1-17.86,16.64-25.8
						c9.88-12.04,22.81-18.6,38.08-20.94c5.26-0.79,10.55-1.24,15.86-1.18c3.14,0.02,6.22-0.37,9.23-1.15
						c3.93-1.02,7.31-3.01,7.98-7.37c0.68-4.34-1.9-7.3-5.34-9.44c-2.01-1.26-4.21-2.22-6.41-3.1c-2.9-1.18-5.73-2.44-8.4-4.06
						c-6.3-3.84-10.75-9.23-13.65-16.01c1.44-0.72,2.07,0.55,2.88,1.03c10.23,5.97,21.02,9.51,33.02,7.96
						c9.79-1.27,18.78-4.8,27.06-10.08c3.4-2.18,6.67-4.54,9.97-6.83c2.57-1.77,5.17-3.45,8.02-4.77c2.96-1.37,5.71-1.13,8.27,0.83
						c2.16,1.66,4.41,3.21,5.74,5.78c0.66,1.26,1.72,2.38,2.83,3.31c8.48,7.06,18.34,11.3,28.96,13.89c1.24,0.3,2.55,0.31,3.8,0.46
						c6.11,0.72,10.69-1.68,14.02-6.74c1-1.53,2.01-3.07,3.08-4.54c2.14-2.97,4.47-5.76,7.11-8.35c5.26-5.17,11.69-7.31,18.84-7.87
						c3.45-0.28,6.93-0.46,10.4-0.76c1.68-0.15,3.27,0.15,4.88,0.57c4.82,1.22,9.4,3.07,13.87,5.15
						c7.17,3.34,13.91,7.39,20.19,12.21c6.39,4.95,13.15,9.27,20.59,12.54c8.55,3.75,17.31,4.32,26.32,2.23
						c2.46-0.57,4.64-1.81,7.07-2.6c-1.79,2.92-4.19,5.08-6.74,7.11c-1.57,1.26-3.23,2.42-4.65,3.84
						c-4.56,4.52-3.47,9.62,2.55,12.04c1.68,0.68,3.49,1.11,5.26,1.57c5.85,1.48,11.75,2.81,17.58,4.4
						c13.54,3.71,26.13,9.47,37.62,17.6c0.72,0.52,1.42,1.07,2.09,1.59c-0.52,1.24-1.24,0.7-1.83,0.48
						c-5.85-2.09-11.67-4.28-17.56-6.32c-1.7-0.59-3.55-0.96-5.34-1.07c-2.33-0.15-4.38,0.68-5.47,2.94
						c-1.03,2.18-0.68,4.32,0.74,6.21c0.78,1.02,1.72,1.92,2.7,2.71c8.03,6.37,14.22,14.2,18.67,23.44
						c2.23,4.62,4.88,9.01,7.96,13.13c7.9,10.47,18.43,16.4,31.32,18.51c7.17,1.16,14.2,1.11,21.24-0.66
						c0.35-0.09,0.72-0.2,1.07-0.26c0.74-0.11,1.51-0.17,1.87,0.65C746.52,427.7,746,428.35,745.54,428.9z"/>
				</g>
			</g>
			<g>
				<g>
					<path d="M483.3,593.9c1.14-6.55,4.77-13.07,12.4-16.61c4.99-2.32,10.11-1.84,14.67,1.24c4.69,3.17,7.73,7.75,9.62,13.05
						c0.85,2.37,0.83,4.72-1.16,6.62c-1.1,1.05-1.77,2.27-2.12,3.75c-0.41,1.7-1.5,3.01-3.1,3.64c-6.35,2.46-12.76,4.66-19.74,2.92
						c-0.53-0.13-1.08-0.23-1.6-0.39C485.89,606.17,483,602.09,483.3,593.9z M499.53,598.74c1.43-0.26,3.25-0.47,5-0.95
						c6.67-1.82,7.36-2.59,2.81-8.57c-0.33-0.43-0.7-0.85-1.1-1.21c-2.27-2.06-5.54-2.22-8-0.37c-1.48,1.11-2.57,2.56-3.43,4.18
						C492.46,596.24,494.1,598.84,499.53,598.74z"/>
				</g>
			</g>
			<g>
				<g>
					<g>
						<path d="M445.22,578.89c-2.41,2.74-4.88,5.46-7.66,7.84c-8.34,7.18-18.16,9.87-29.02,8.8c-1.55-0.17-3.06-0.4-4.56-0.76
							c-1.66,4.23-3.31,8.45-4.97,12.68c-0.93,2.42-4.06,3.04-6.18,2.1c-2.43-1.07-2.98-3.96-2.1-6.2
							c1.59-4.08,3.18-8.15,4.79-12.23c-0.12-0.06-0.22-0.14-0.33-0.21c-1.65-1.12-3.1-2.44-4.36-3.92c-2.96,2.27-6,4.43-9.17,6.42
							c-2.17,1.39-4.88,0.83-6.4-1.23c-1.47-1.96-0.83-5.1,1.23-6.4c2.98-1.89,5.87-3.91,8.68-6.04c0.4-0.3,0.79-0.6,1.17-0.92
							c-1.33-4.34-1.34-9.06,0.21-13.52c4.15-12.01,12.51-19.49,24.83-22.46c5.86-1.41,9.98-1.45,16.2-0.25
							c5.65,0.93,11.09,3.37,15.72,7.47c4.78,4.21,7.24,9.5,7.2,15.96C450.48,571.06,448.44,575.24,445.22,578.89z"/>
					</g>
				</g>
			</g>
			<g>
				<g>
					<g>
						<path d="M570.49,572.45c2.62,2.53,5.31,5.05,8.26,7.2c8.89,6.49,18.89,8.38,29.63,6.44c1.53-0.29,3.02-0.64,4.48-1.12
							c1.99,4.09,3.98,8.15,5.97,12.24c1.12,2.33,4.29,2.7,6.33,1.6c2.33-1.26,2.66-4.18,1.6-6.34c-1.91-3.94-3.83-7.87-5.76-11.8
							c0.11-0.07,0.21-0.15,0.32-0.24c1.55-1.25,2.9-2.68,4.03-4.26c3.13,2.03,6.34,3.94,9.65,5.66c2.27,1.21,4.93,0.44,6.28-1.74
							c1.31-2.07,0.41-5.15-1.74-6.28c-3.12-1.65-6.16-3.43-9.14-5.33c-0.42-0.27-0.84-0.53-1.24-0.82
							c0.98-4.43,0.61-9.14-1.29-13.46c-5.1-11.64-14.03-18.42-26.55-20.4c-5.95-0.94-10.07-0.64-16.17,1.05
							c-5.56,1.38-10.78,4.25-15.07,8.71c-4.42,4.58-6.46,10.05-5.9,16.48C564.61,565.07,566.99,569.07,570.49,572.45z"/>
					</g>
				</g>
			</g>
		</g>
	</g>
</g>
</svg>
